<?xml version="1.0" encoding="UTF-8"?>
<svg width="364" height="117" viewBox="0 0 364 117" fill="none" xmlns="http://www.w3.org/2000/svg">
<path d="M37.176 86H0.568L1.72 80.496C5.13333 80.496 7.736 80.24 9.528 79.728C11.32 79.1307 12.6427 77.9787 13.496 76.272C14.4347 74.5653 15.2453 71.9627 15.928 68.464L26.296 18.288C26.9787 15.1307 27.1067 12.8267 26.68 11.376C26.3387 9.84 25.4 8.85867 23.864 8.432C22.328 8.00533 20.0667 7.792 17.08 7.792L18.36 1.904H54.2C59.7467 1.904 65.0373 2.37333 70.072 3.312C75.192 4.16533 79.7147 5.78666 83.64 8.17599C87.6507 10.48 90.808 13.7653 93.112 18.032C95.5013 22.2133 96.696 27.632 96.696 34.288C96.696 43.9307 95.1173 52.08 91.96 58.736C88.8027 65.3067 84.4507 70.5973 78.904 74.608C73.4427 78.6187 67.128 81.52 59.96 83.312C52.792 85.104 45.1973 86 37.176 86ZM38.072 78.704C47.032 78.704 54.3707 77.3387 60.088 74.608C65.8053 71.792 70.0293 67.312 72.76 61.168C75.4907 54.9387 76.856 46.704 76.856 36.464C76.856 31.9413 76.344 27.9733 75.32 24.56C74.296 21.1467 72.7173 18.3307 70.584 16.112C68.536 13.808 65.9333 12.1013 62.776 10.992C59.6187 9.79733 55.9067 9.2 51.64 9.2C50.9573 9.2 50.232 9.2 49.464 9.2C48.7813 9.2 47.8427 9.24266 46.648 9.328L32.312 78.576C33.2507 78.6613 34.232 78.704 35.256 78.704C36.28 78.704 37.2187 78.704 38.072 78.704ZM110.124 87.536C102.444 87.536 96.172 86.1707 91.308 83.44C86.444 80.7093 82.86 76.9547 80.556 72.176C78.3373 67.312 77.228 61.808 77.228 55.664C77.228 46.96 78.508 39.1947 81.068 32.368C83.7133 25.5413 87.4253 19.7387 92.204 14.96C96.9827 10.1813 102.657 6.55466 109.228 4.07999C115.799 1.60533 123.009 0.367996 130.86 0.367996C135.041 0.367996 138.284 0.70933 140.588 1.392C142.977 2.07466 144.855 2.79999 146.22 3.56799C147.671 4.25066 148.993 4.592 150.188 4.592C151.553 4.592 152.577 4.12266 153.26 3.184C153.943 2.24533 154.497 1.30666 154.924 0.367996H160.428L153.772 31.856H147.884C147.799 23.8347 146.177 17.7333 143.02 13.552C139.863 9.37066 135.169 7.28 128.94 7.28C123.479 7.28 118.7 8.51733 114.604 10.992C110.508 13.3813 107.095 16.7093 104.364 20.976C101.719 25.2427 99.7133 30.064 98.348 35.44C97.068 40.816 96.428 46.448 96.428 52.336C96.428 61.04 98.348 67.0133 102.188 70.256C106.028 73.4987 111.489 75.12 118.572 75.12C122.753 75.12 126.423 74.6507 129.58 73.712C132.823 72.688 135.809 71.2373 138.54 69.36C141.356 67.3973 144.215 65.0507 147.116 62.32L150.316 65.904C147.159 69.488 143.745 72.944 140.076 76.272C136.407 79.6 132.14 82.3307 127.276 84.464C122.497 86.512 116.78 87.536 110.124 87.536ZM182.059 116.08C176.171 116.08 171.563 115.483 168.235 114.288C164.907 113.179 162.56 111.6 161.195 109.552C159.83 107.504 159.147 105.2 159.147 102.64C159.147 100.165 159.915 97.9893 161.451 96.112C163.072 94.2347 165.504 92.0587 168.747 89.584V87.792L174.507 89.584C173.91 90.608 173.27 91.9733 172.587 93.68C171.99 95.472 171.691 97.264 171.691 99.056C171.691 101.872 173.142 104.005 176.043 105.456C178.944 106.907 183.808 107.632 190.635 107.632C195.499 107.632 199.168 107.205 201.643 106.352C204.203 105.499 205.952 104.389 206.891 103.024C207.83 101.659 208.299 100.165 208.299 98.544C208.299 96.6667 207.787 95.216 206.763 94.192C205.824 93.168 204.502 92.4 202.795 91.888C201.088 91.4613 199.126 91.1627 196.907 90.992C194.774 90.8213 192.47 90.736 189.995 90.736C186.326 90.6507 183.382 90.608 181.163 90.608C179.03 90.608 177.366 90.5653 176.171 90.48C175.062 90.48 174.208 90.48 173.611 90.48L169.259 89.328C168.662 89.1573 167.638 88.7733 166.187 88.176C164.736 87.664 163.371 86.6827 162.091 85.232C160.811 83.7813 160.171 81.6907 160.171 78.96C160.171 76.2293 160.683 73.968 161.707 72.176C162.731 70.384 164.054 68.7627 165.675 67.312C167.382 65.8613 169.216 64.3253 171.179 62.704V60.4L177.579 63.088C176.811 64.1973 176.171 65.2213 175.659 66.16C175.147 67.0133 174.763 67.824 174.507 68.592C174.336 69.36 174.251 70.2133 174.251 71.152C174.251 72.0907 174.592 72.8587 175.275 73.456C175.958 74.0533 177.451 74.48 179.755 74.736C182.144 74.992 185.899 75.1627 191.019 75.248C198.187 75.3333 204.032 75.8453 208.555 76.784C213.078 77.7227 216.406 79.344 218.539 81.648C220.672 83.952 221.739 87.28 221.739 91.632C221.739 96.3253 220.459 100.208 217.899 103.28C215.339 106.437 212.011 108.955 207.915 110.832C203.904 112.709 199.595 114.032 194.987 114.8C190.379 115.653 186.07 116.08 182.059 116.08ZM188.843 66.928C186.368 66.928 183.979 66.7147 181.675 66.288C179.456 65.8613 177.28 65.136 175.147 64.112L172.075 62.448C170.795 61.5947 169.344 60.6133 167.723 59.504C166.102 58.3093 164.694 56.6453 163.499 54.512C162.304 52.2933 161.707 49.2213 161.707 45.296C161.707 40.3467 162.987 36.336 165.547 33.264C168.192 30.192 171.563 27.9307 175.659 26.48C179.755 25.0293 183.979 24.304 188.331 24.304C190.635 24.304 193.238 24.4747 196.139 24.816C199.126 25.1573 202.027 25.6693 204.843 26.352C207.659 26.9493 209.92 27.76 211.627 28.784V34.8C212.395 35.9947 213.163 37.5307 213.931 39.408C214.699 41.2 215.083 43.76 215.083 47.088C215.083 52.0373 213.803 55.9627 211.243 58.864C208.683 61.7653 205.398 63.856 201.387 65.136C197.462 66.3307 193.28 66.928 188.843 66.928ZM188.715 60.784C191.275 60.784 193.408 59.76 195.115 57.712C196.822 55.664 197.675 51.7813 197.675 46.064C197.675 40.6027 196.822 36.6773 195.115 34.288C193.408 31.8987 191.019 30.704 187.947 30.704C185.302 30.704 183.083 31.728 181.291 33.776C179.584 35.824 178.731 39.4933 178.731 44.784C178.731 50.5013 179.67 54.5973 181.547 57.072C183.424 59.5467 185.814 60.784 188.715 60.784ZM223.531 26.352V34.288H209.579L205.483 26.352H223.531ZM254.527 87.408C248.298 87.408 243.007 86.2133 238.655 83.824C234.388 81.4347 231.103 77.8933 228.799 73.2C226.58 68.5067 225.471 62.7893 225.471 56.048C225.471 48.7093 226.879 42.6933 229.695 38C232.511 33.2213 236.223 29.68 240.831 27.376C245.524 25.072 250.644 23.92 256.191 23.92C264.298 23.92 270.783 26.3947 275.647 31.344C280.596 36.208 283.114 43.4613 283.199 53.104H242.751L242.623 47.088H263.103C263.103 43.5893 262.847 40.5173 262.335 37.872C261.823 35.2267 260.927 33.1787 259.647 31.728C258.452 30.2773 256.703 29.552 254.399 29.552C250.474 29.552 247.786 31.2587 246.335 34.672C244.884 38.0853 244.159 43.5893 244.159 51.184C244.159 56.816 244.799 61.2533 246.079 64.496C247.359 67.7387 249.279 70.0853 251.839 71.536C254.399 72.9013 257.556 73.584 261.311 73.584C264.639 73.584 267.455 73.2427 269.759 72.56C272.148 71.8773 274.196 70.896 275.903 69.616C277.695 68.2507 279.274 66.7147 280.639 65.008L283.967 67.312C282.602 69.7867 281.151 72.2187 279.615 74.608C278.164 76.9973 276.372 79.1733 274.239 81.136C272.191 83.0133 269.588 84.5493 266.431 85.744C263.274 86.8533 259.306 87.408 254.527 87.408ZM363.794 86H328.21V80.88C330.77 80.88 332.647 80.624 333.842 80.112C335.037 79.5147 335.805 78.576 336.146 77.296C336.487 75.9307 336.658 74.0533 336.658 71.664V51.696C336.658 47.6853 336.274 44.5707 335.506 42.352C334.738 40.048 333.586 38.4693 332.05 37.616C330.514 36.6773 328.594 36.208 326.29 36.208C324.327 36.208 322.578 36.5067 321.042 37.104C319.506 37.7013 318.055 38.512 316.69 39.536C315.325 40.56 313.917 41.6693 312.466 42.864L311.698 34.8H314.002C317.245 31.5573 320.359 28.9547 323.346 26.992C326.418 24.944 329.874 23.92 333.714 23.92C340.455 23.92 345.661 25.968 349.33 30.064C353.085 34.16 354.962 40.432 354.962 48.88V71.664C354.962 73.968 355.175 75.8027 355.602 77.168C356.029 78.5333 356.882 79.5147 358.162 80.112C359.442 80.624 361.319 80.88 363.794 80.88V86ZM322.962 86H286.61V80.88C289.426 80.88 291.431 80.624 292.626 80.112C293.906 79.5147 294.674 78.5333 294.93 77.168C295.271 75.8027 295.442 73.968 295.442 71.664V38.768C295.442 36.3787 295.015 34.8427 294.162 34.16C293.309 33.392 291.986 33.008 290.194 33.008C289.085 33.008 288.231 33.0507 287.634 33.136C287.037 33.2213 286.738 33.264 286.738 33.264V28.016L306.45 24.304H313.49V36.592L313.874 39.92V71.664C313.874 73.968 314.045 75.8027 314.386 77.168C314.727 78.5333 315.538 79.5147 316.818 80.112C318.098 80.624 320.146 80.88 322.962 80.88V86Z" fill="black"/>
</svg>