<?xml version="1.0" encoding="UTF-8"?>
<svg id="Layer_1" data-name="Layer 1" xmlns="http://www.w3.org/2000/svg" viewBox="0 0 23.94 18.24">
  <defs>
    <style>
      .cls-1 {
        fill: #fff;
        stroke-width: 0px;
      }
    </style>
  </defs>
  <path class="cls-1" d="m20.3,1.54s-.02-.02-.03-.03C18.71.8,17.07.29,15.39,0c-.02,0-.03,0-.05,0-.01,0-.03.02-.03.03-.22.4-.43.82-.61,1.25-1.81-.28-3.66-.28-5.47,0-.18-.43-.39-.84-.62-1.25,0-.01-.02-.02-.03-.03-.01,0-.03,0-.04,0-1.68.29-3.32.8-4.87,1.51-.01,0-.02.02-.03.03C.53,6.17-.32,10.69.1,15.16c0,.01,0,.02,0,.03,0,0,.01.02.02.02,1.81,1.34,3.83,2.36,5.98,3.02.02,0,.03,0,.05,0,.02,0,.03-.01.04-.03.46-.63.87-1.29,1.22-1.99,0,0,0-.02,0-.03,0-.01,0-.02,0-.03,0,0,0-.02-.02-.03,0,0-.02-.01-.03-.02-.64-.25-1.27-.54-1.87-.89-.01,0-.02-.02-.03-.03,0-.01-.01-.02-.01-.04,0-.01,0-.03,0-.04,0-.01.01-.02.02-.03.13-.09.25-.19.37-.29.01,0,.02-.01.04-.02.01,0,.03,0,.04,0,3.92,1.79,8.16,1.79,12.03,0,.01,0,.03,0,.04,0,.01,0,.03,0,.04.02.12.1.25.2.37.29.01,0,.02.02.02.03,0,.01,0,.02,0,.04,0,.01,0,.02-.01.04,0,.01-.02.02-.03.03-.6.35-1.22.65-1.87.89-.01,0-.02,0-.03.02,0,0-.01.02-.02.03,0,.01,0,.02,0,.03,0,.01,0,.02,0,.03.36.69.77,1.36,1.22,1.99,0,.01.02.02.04.03s.03,0,.05,0c2.15-.66,4.18-1.68,5.99-3.02,0,0,.02-.01.02-.02,0,0,0-.02,0-.03.5-5.16-.84-9.64-3.54-13.62ZM8,12.44c-1.18,0-2.15-1.08-2.15-2.41s.95-2.41,2.15-2.41,2.17,1.09,2.15,2.41c0,1.33-.95,2.41-2.15,2.41Zm7.95,0c-1.18,0-2.15-1.08-2.15-2.41s.95-2.41,2.15-2.41,2.17,1.09,2.15,2.41c0,1.33-.94,2.41-2.15,2.41Z"/>
</svg>