<svg width="528" height="271" viewBox="0 0 528 271" fill="none" xmlns="http://www.w3.org/2000/svg">
<circle cx="313.299" cy="121.298" r="75" transform="rotate(-179.771 313.299 121.298)" fill="#F87D49"/>
<circle cx="143.28" cy="53.9974" r="39.8398" transform="rotate(-179.771 143.28 53.9974)" fill="#F87D49"/>
<circle cx="68.4644" cy="225.508" r="45.327" transform="rotate(-179.771 68.4644 225.508)" fill="#F87D49"/>
<circle cx="217.984" cy="240.985" r="20.9006" transform="rotate(-179.771 217.984 240.985)" fill="#F87D49"/>
<circle cx="169.408" cy="166.468" r="13.4467" transform="rotate(-179.771 169.408 166.468)" fill="#F87D49"/>
<circle cx="388.5" cy="240.5" r="13.4467" transform="rotate(-179.771 388.5 240.5)" fill="#F87D49"/>
<circle cx="415.5" cy="13.4997" r="13.4467" transform="rotate(-179.771 415.5 13.4997)" fill="#F87D49"/>
<circle cx="20.9839" cy="93.9848" r="20.9006" transform="rotate(-179.771 20.9839 93.9848)" fill="#F87D49"/>
<circle cx="480.552" cy="210.477" r="30.3706" transform="rotate(-179.771 480.552 210.477)" fill="#F87D49"/>
<circle cx="488.885" cy="85.8168" r="39.012" transform="rotate(-179.771 488.885 85.8168)" fill="#F87D49"/>
</svg>
