<?xml version="1.0" encoding="UTF-8"?>
<svg id="Layer_1" data-name="Layer 1" xmlns="http://www.w3.org/2000/svg" viewBox="0 0 24 17.29">
  <defs>
    <style>
      .cls-1 {
        fill: #fff;
        stroke-width: 0px;
      }
    </style>
  </defs>
  <path class="cls-1" d="m10.8,14.42c.19,0,.36.07.5.21.13.13.21.31.21.5,0,.19-.07.36-.21.5-.13.13-.31.21-.5.21-.19,0-.36-.07-.5-.21-.13-.13-.21-.31-.21-.5,0-.19.07-.36.21-.5.13-.13.31-.21.5-.21Zm11.02-4.35c-.19,0-.36-.07-.5-.21-.13-.13-.21-.31-.21-.5,0-.19.07-.36.21-.5s.31-.21.5-.21c.19,0,.36.07.5.21.13.13.21.31.21.5,0,.19-.07.36-.21.5-.13.13-.31.21-.5.21Zm0-2.88c-.58,0-1.13.23-1.54.64-.41.41-.64.96-.64,1.54,0,.23.04.47.12.69l-7.18,3.82c-.2-.29-.47-.53-.78-.69-.31-.16-.66-.25-1.01-.25-.41,0-.8.11-1.15.33-.34.21-.62.52-.8.89l-6.45-3.4c-.68-.36-1.19-1.48-1.14-2.5.03-.53.21-.95.49-1.11.18-.1.39-.09.62.03l.04.02c1.71.9,7.3,3.85,7.54,3.96.36.17.57.24,1.18-.06l11.57-6.01c.17-.06.37-.23.37-.47,0-.34-.35-.48-.35-.48-.66-.32-1.67-.79-2.66-1.25-2.11-.99-4.5-2.11-5.55-2.66-.91-.47-1.63-.07-1.76,0l-.25.13C7.78,2.69,1.46,5.82,1.1,6.04.46,6.44.06,7.22,0,8.19c-.08,1.54.7,3.14,1.82,3.73l6.82,3.52c.08.52.33.99.73,1.33.39.34.9.53,1.42.53.57,0,1.12-.23,1.52-.63.41-.4.64-.94.65-1.51l7.51-4.07c.38.3.85.46,1.34.46,1.2,0,2.17-.98,2.17-2.17s-.98-2.17-2.17-2.17Z"/>
</svg>