<?xml version="1.0" encoding="UTF-8"?>
<svg id="Layer_1" data-name="Layer 1" xmlns="http://www.w3.org/2000/svg" viewBox="0 0 23.96 23.62">
  <defs>
    <style>
      .cls-1 {
        fill: #fff;
        stroke-width: 0px;
      }
    </style>
  </defs>
  <path class="cls-1" d="m8.01,19.02c0,.1-.11.18-.25.18-.16.01-.27-.06-.27-.18,0-.1.11-.18.25-.18.14-.01.27.06.27.18Zm-1.5-.22c-.03.1.06.21.21.24.13.05.27,0,.3-.1.03-.1-.06-.21-.21-.25-.13-.03-.27.01-.3.11Zm2.14-.08c-.14.03-.24.13-.22.24.01.1.14.16.29.13.14-.03.24-.13.22-.22-.01-.09-.14-.16-.29-.14ZM11.83,0C5.13,0,0,5.14,0,11.92c0,5.42,3.37,10.05,8.19,11.68.62.11.84-.27.84-.59s-.01-1.97-.01-3c0,0-3.38.73-4.09-1.46,0,0-.55-1.42-1.34-1.79,0,0-1.11-.77.08-.75,0,0,1.2.1,1.86,1.26,1.06,1.88,2.83,1.34,3.52,1.02.11-.78.43-1.32.77-1.65-2.7-.3-5.42-.7-5.42-5.4,0-1.34.37-2.02,1.14-2.88-.13-.32-.54-1.63.13-3.32,1.01-.32,3.33,1.32,3.33,1.32.97-.27,2-.42,3.03-.42s2.07.14,3.03.42c0,0,2.32-1.64,3.33-1.32.66,1.69.25,3,.13,3.32.77.86,1.25,1.54,1.25,2.88,0,4.71-2.85,5.09-5.55,5.4.44.39.82,1.12.82,2.27,0,1.65-.01,3.68-.01,4.08,0,.32.22.7.84.59,4.83-1.62,8.11-6.26,8.11-11.67C23.96,5.14,18.53,0,11.83,0Zm-7.13,16.84c-.06.05-.05.16.03.25.08.08.19.11.25.05.06-.05.05-.16-.03-.25-.08-.08-.19-.11-.25-.05Zm-.52-.4c-.03.06.01.14.11.19.08.05.17.03.21-.03.03-.06-.01-.14-.11-.19-.1-.03-.17-.01-.21.03Zm1.57,1.74c-.08.06-.05.21.06.3.11.11.25.13.31.05.06-.06.03-.21-.06-.3-.11-.11-.25-.13-.31-.05Zm-.55-.72c-.08.05-.08.18,0,.29.08.11.21.16.27.11.08-.06.08-.19,0-.3-.07-.11-.19-.16-.27-.1Z"/>
</svg>