<?xml version="1.0" encoding="UTF-8"?>
<svg id="Layer_1" data-name="Layer 1" xmlns="http://www.w3.org/2000/svg" viewBox="0 0 22.83 19.5">
  <defs>
    <style>
      .cls-1 {
        fill: #fff;
        fill-rule: evenodd;
        stroke-width: 0px;
      }
    </style>
  </defs>
  <path class="cls-1" d="m20.46.14c1.24-.52,2.56.52,2.34,1.85l-2.58,15.62c-.25,1.51-1.9,2.37-3.28,1.62-1.16-.63-2.87-1.59-4.42-2.61-.77-.5-3.14-2.12-2.85-3.27.25-.98,4.22-4.68,6.49-6.88.89-.86.49-1.36-.57-.57-2.61,1.97-6.81,4.98-8.2,5.82-1.22.75-1.86.87-2.63.75-1.39-.23-2.68-.59-3.74-1.03-1.42-.59-1.36-2.55,0-3.12L20.46.14Z"/>
</svg>