<?xml version="1.0" encoding="UTF-8"?>
<svg id="Layer_1" data-name="Layer 1" xmlns="http://www.w3.org/2000/svg" viewBox="0 0 24 24">
  <defs>
    <style>
      .cls-1 {
        fill: #fff;
        fill-rule: evenodd;
        stroke-width: 0px;
      }
    </style>
  </defs>
  <path class="cls-1" d="m22.34,2.21c.48-.55.43-1.4-.13-1.88-.55-.48-1.4-.43-1.88.13l-6.81,7.79L7.73.53C7.48.2,7.09,0,6.67,0H1.33C.83,0,.37.29.14.74c-.23.45-.18.99.13,1.4l8.58,11.44L1.66,21.79c-.48.55-.43,1.4.13,1.88.55.48,1.4.43,1.88-.13l6.81-7.79,5.78,7.71c.25.34.65.53,1.07.53h5.33c.51,0,.97-.29,1.19-.74.23-.45.18-.99-.13-1.4l-8.58-11.44,7.19-8.21Zm-4.34,19.12L4,2.67h2l14,18.67h-2Z"/>
</svg>