<svg width="60" height="60" viewBox="0 0 60 60" fill="none" xmlns="http://www.w3.org/2000/svg">
<g filter="url(#filter0_d_1995_2419)">
<g clip-path="url(#clip0_1995_2419)">
<rect x="8" y="6" width="40" height="40" rx="20" fill="#D0D2D4"/>
<g clip-path="url(#clip1_1995_2419)">
<g filter="url(#filter1_d_1995_2419)">
<path fill-rule="evenodd" clip-rule="evenodd" d="M35.3738 17.2907C35.5581 17.2446 35.7512 17.247 35.9343 17.2977C36.1174 17.3484 36.2842 17.4457 36.4185 17.58C36.5528 17.7143 36.6501 17.8811 36.7008 18.0642C36.7515 18.2473 36.7539 18.4404 36.7078 18.6247L35.6028 23.0447C35.3831 23.9239 34.9286 24.7268 34.2878 25.3677L29.7068 29.9477V32.1557C29.7065 32.5534 29.5482 32.9346 29.2668 33.2157L27.5378 34.9457C27.3991 35.0844 27.2297 35.1887 27.0433 35.2501C26.8569 35.3114 26.6587 35.3282 26.4646 35.299C26.2706 35.2698 26.0861 35.1955 25.926 35.0821C25.7659 34.9686 25.6347 34.8191 25.5428 34.6457C25.1345 33.8731 24.6866 33.1221 24.2008 32.3957C24.1004 32.6483 23.9493 32.8776 23.7568 33.0697C22.9768 33.8507 19.6908 34.6607 19.5148 34.4837C19.3378 34.3077 20.1478 31.0227 20.9288 30.2417C21.1268 30.0427 21.3568 29.8947 21.6018 29.7977C20.8757 29.312 20.1251 28.8641 19.3528 28.4557C19.1794 28.3639 19.0299 28.2326 18.9165 28.0725C18.803 27.9124 18.7287 27.7279 18.6995 27.5339C18.6703 27.3398 18.6871 27.1416 18.7484 26.9552C18.8098 26.7688 18.9141 26.5994 19.0528 26.4607L20.7828 24.7307C21.0639 24.4493 21.4451 24.291 21.8428 24.2907H24.0498L28.6298 19.7107C29.271 19.0698 30.0743 18.6152 30.9538 18.3957L35.3738 17.2907ZM33.3768 23.2847C33.0787 22.7207 32.6963 22.2054 32.2428 21.7567C31.7939 21.3028 31.2783 20.92 30.7138 20.6217C30.468 20.7575 30.2425 20.9271 30.0438 21.1257L29.0588 22.1117C29.4568 22.2117 30.1288 22.4717 30.8288 23.1707C31.5278 23.8697 31.7868 24.5407 31.8868 24.9397L32.8728 23.9537C33.0728 23.7537 33.2418 23.5287 33.3768 23.2837V23.2847Z" fill="white"/>
</g>
</g>
</g>
</g>
<defs>
<filter id="filter0_d_1995_2419" x="0" y="0" width="60" height="60" filterUnits="userSpaceOnUse" color-interpolation-filters="sRGB">
<feFlood flood-opacity="0" result="BackgroundImageFix"/>
<feColorMatrix in="SourceAlpha" type="matrix" values="0 0 0 0 0 0 0 0 0 0 0 0 0 0 0 0 0 0 127 0" result="hardAlpha"/>
<feOffset dx="2" dy="4"/>
<feGaussianBlur stdDeviation="5"/>
<feComposite in2="hardAlpha" operator="out"/>
<feColorMatrix type="matrix" values="0 0 0 0 0 0 0 0 0 0 0 0 0 0 0 0 0 0 0.25 0"/>
<feBlend mode="normal" in2="BackgroundImageFix" result="effect1_dropShadow_1995_2419"/>
<feBlend mode="normal" in="SourceGraphic" in2="effect1_dropShadow_1995_2419" result="shape"/>
</filter>
<filter id="filter1_d_1995_2419" x="16.6855" y="17.2578" width="22.0552" height="22.0547" filterUnits="userSpaceOnUse" color-interpolation-filters="sRGB">
<feFlood flood-opacity="0" result="BackgroundImageFix"/>
<feColorMatrix in="SourceAlpha" type="matrix" values="0 0 0 0 0 0 0 0 0 0 0 0 0 0 0 0 0 0 127 0" result="hardAlpha"/>
<feOffset dy="2"/>
<feGaussianBlur stdDeviation="1"/>
<feComposite in2="hardAlpha" operator="out"/>
<feColorMatrix type="matrix" values="0 0 0 0 0 0 0 0 0 0 0 0 0 0 0 0 0 0 0.25 0"/>
<feBlend mode="normal" in2="BackgroundImageFix" result="effect1_dropShadow_1995_2419"/>
<feBlend mode="normal" in="SourceGraphic" in2="effect1_dropShadow_1995_2419" result="shape"/>
</filter>
<clipPath id="clip0_1995_2419">
<rect x="8" y="6" width="40" height="40" rx="20" fill="white"/>
</clipPath>
<clipPath id="clip1_1995_2419">
<rect width="24" height="24" fill="white" transform="translate(16 14)"/>
</clipPath>
</defs>
</svg>
