<svg width="40" height="40" viewBox="0 0 40 40" fill="none" xmlns="http://www.w3.org/2000/svg">
<g clip-path="url(#clip0_1995_2419)">
<rect width="40" height="40" rx="20" fill="#D0D2D4"/>
<g clip-path="url(#clip1_1995_2419)">
<g filter="url(#filter0_d_1995_2419)">
<path fill-rule="evenodd" clip-rule="evenodd" d="M27.3738 11.2907C27.5581 11.2446 27.7512 11.247 27.9343 11.2977C28.1174 11.3484 28.2842 11.4457 28.4185 11.58C28.5528 11.7143 28.6501 11.8811 28.7008 12.0642C28.7515 12.2473 28.7539 12.4404 28.7078 12.6247L27.6028 17.0447C27.3831 17.9239 26.9286 18.7268 26.2878 19.3677L21.7068 23.9477V26.1557C21.7065 26.5534 21.5482 26.9346 21.2668 27.2157L19.5378 28.9457C19.3991 29.0844 19.2297 29.1887 19.0433 29.2501C18.8569 29.3114 18.6587 29.3282 18.4646 29.299C18.2706 29.2698 18.0861 29.1955 17.926 29.0821C17.7659 28.9686 17.6347 28.8191 17.5428 28.6457C17.1345 27.8731 16.6866 27.1221 16.2008 26.3957C16.1004 26.6483 15.9493 26.8776 15.7568 27.0697C14.9768 27.8507 11.6908 28.6607 11.5148 28.4837C11.3378 28.3077 12.1478 25.0227 12.9288 24.2417C13.1268 24.0427 13.3568 23.8947 13.6018 23.7977C12.8757 23.312 12.1251 22.8641 11.3528 22.4557C11.1794 22.3639 11.0299 22.2326 10.9165 22.0725C10.803 21.9124 10.7287 21.7279 10.6995 21.5339C10.6703 21.3398 10.6871 21.1416 10.7484 20.9552C10.8098 20.7688 10.9141 20.5994 11.0528 20.4607L12.7828 18.7307C13.0639 18.4493 13.4451 18.291 13.8428 18.2907H16.0498L20.6298 13.7107C21.271 13.0698 22.0743 12.6152 22.9538 12.3957L27.3738 11.2907ZM25.3768 17.2847C25.0787 16.7207 24.6963 16.2054 24.2428 15.7567C23.7939 15.3028 23.2783 14.92 22.7138 14.6217C22.468 14.7575 22.2425 14.9271 22.0438 15.1257L21.0588 16.1117C21.4568 16.2117 22.1288 16.4717 22.8288 17.1707C23.5278 17.8697 23.7868 18.5407 23.8868 18.9397L24.8728 17.9537C25.0728 17.7537 25.2418 17.5287 25.3768 17.2837V17.2847Z" fill="white"/>
</g>
</g>
</g>
<defs>
<filter id="filter0_d_1995_2419" x="8.68555" y="11.2578" width="22.0552" height="22.0547" filterUnits="userSpaceOnUse" color-interpolation-filters="sRGB">
<feFlood flood-opacity="0" result="BackgroundImageFix"/>
<feColorMatrix in="SourceAlpha" type="matrix" values="0 0 0 0 0 0 0 0 0 0 0 0 0 0 0 0 0 0 127 0" result="hardAlpha"/>
<feOffset dy="2"/>
<feGaussianBlur stdDeviation="1"/>
<feComposite in2="hardAlpha" operator="out"/>
<feColorMatrix type="matrix" values="0 0 0 0 0 0 0 0 0 0 0 0 0 0 0 0 0 0 0.25 0"/>
<feBlend mode="normal" in2="BackgroundImageFix" result="effect1_dropShadow_1995_2419"/>
<feBlend mode="normal" in="SourceGraphic" in2="effect1_dropShadow_1995_2419" result="shape"/>
</filter>
<clipPath id="clip0_1995_2419">
<rect width="40" height="40" rx="20" fill="white"/>
</clipPath>
<clipPath id="clip1_1995_2419">
<rect width="24" height="24" fill="white" transform="translate(8 8)"/>
</clipPath>
</defs>
</svg>
