<svg width="580" height="316" viewBox="0 0 580 316" fill="none" xmlns="http://www.w3.org/2000/svg">
<line y1="-2" x2="39.8859" y2="-2" transform="matrix(0.372922 -0.927862 0.914943 0.403582 3.61914 187.965)" stroke="#050A30" stroke-width="4"/>
<line y1="-2" x2="19.6152" y2="-2" transform="matrix(0.331759 0.943364 -0.932924 0.360074 16.6348 150.953)" stroke="#050A30" stroke-width="4"/>
<line y1="-2" x2="31.8373" y2="-2" transform="matrix(-0.204399 0.978888 -0.974733 -0.223375 29.6494 138.293)" stroke="#050A30" stroke-width="4"/>
<line y1="-2" x2="50.094" y2="-2" transform="matrix(0.129906 0.991526 -0.98982 0.142326 29.6494 138.293)" stroke="#050A30" stroke-width="4"/>
<line y1="-2" x2="18.1573" y2="-2" transform="matrix(-0.716793 -0.697286 0.663309 -0.748345 50.1016 198.676)" stroke="#050A30" stroke-width="4"/>
<line y1="-2" x2="10.41" y2="-2" transform="matrix(0.982339 0.187111 -0.170998 0.985271 48.2422 199.652)" stroke="#050A30" stroke-width="4"/>
<line y1="-2" x2="19.83" y2="-2" transform="matrix(-0.187523 0.98226 -0.978747 -0.20507 62.1865 182.121)" stroke="#050A30" stroke-width="4"/>
<line y1="-2" x2="31.6604" y2="-2" transform="matrix(0.176179 0.984358 -0.981249 0.192744 62.1865 182.121)" stroke="#050A30" stroke-width="4"/>
<line y1="-2" x2="15.1757" y2="-2" transform="matrix(-0.551332 -0.834286 0.809506 -0.587112 77.9912 224)" stroke="#050A30" stroke-width="4"/>
<line y1="-2" x2="12.0781" y2="-2" transform="matrix(0.461816 -0.886976 0.868244 0.496137 77.9912 224)" stroke="#050A30" stroke-width="4"/>
<line y1="-2" x2="31.5099" y2="-2" transform="matrix(-0.147517 -0.98906 0.986866 -0.16154 88.2168 244.453)" stroke="#050A30" stroke-width="4"/>
<line y1="-2" x2="56.3241" y2="-2" transform="matrix(0.264085 0.9645 0.839406 -0.543505 87.2871 241.664)" stroke="#050A30" stroke-width="4"/>
<line y1="-2" x2="27.931" y2="-2" transform="matrix(0.232986 -0.97248 -0.870065 -0.492937 100.303 295.992)" stroke="#050A30" stroke-width="4"/>
<line y1="-2" x2="46.2076" y2="-2" transform="matrix(-0.140833 -0.990033 -0.947811 0.318834 113.317 314.574)" stroke="#050A30" stroke-width="4"/>
<line y1="-2" x2="73.1992" y2="-2" transform="matrix(0.0889017 -0.99604 -0.978443 -0.206518 113.317 314.574)" stroke="#050A30" stroke-width="4"/>
<line y1="-2" x2="22.6888" y2="-2" transform="matrix(-0.573632 0.819113 0.516909 0.85604 133.77 225.941)" stroke="#050A30" stroke-width="4"/>
<line y1="-2" x2="10.6183" y2="-2" transform="matrix(0.963065 -0.26927 -0.117416 -0.993083 131.91 224.512)" stroke="#050A30" stroke-width="4"/>
<line y1="-2" x2="28.8327" y2="-2" transform="matrix(-0.128971 -0.991648 -0.955816 0.293967 145.854 250.242)" stroke="#050A30" stroke-width="4"/>
<line y1="-2" x2="46.0858" y2="-2" transform="matrix(0.121032 -0.992649 -0.960856 -0.277048 145.854 250.242)" stroke="#050A30" stroke-width="4"/>
<line y1="-2" x2="20.3813" y2="-2" transform="matrix(-0.410515 0.911854 0.68464 0.728881 162.367 189)" stroke="#050A30" stroke-width="4"/>
<line y1="-2" x2="16.6855" y2="-2" transform="matrix(0.334295 0.942468 0.766161 -0.642649 161.659 188.773)" stroke="#050A30" stroke-width="4"/>
<line y1="-2" x2="45.9826" y2="-2" transform="matrix(-0.101087 0.994878 0.972326 0.233629 171.886 158.75)" stroke="#050A30" stroke-width="4"/>
<line y1="-2" x2="56.3241" y2="-2" transform="matrix(0.264085 0.9645 0.839406 -0.543505 172.814 158.879)" stroke="#050A30" stroke-width="4"/>
<line y1="-2" x2="27.931" y2="-2" transform="matrix(0.232986 -0.97248 -0.870065 -0.492937 185.83 213.207)" stroke="#050A30" stroke-width="4"/>
<line y1="-2" x2="46.2076" y2="-2" transform="matrix(-0.140833 -0.990033 -0.947811 0.318834 198.845 231.793)" stroke="#050A30" stroke-width="4"/>
<line y1="-2" x2="73.1992" y2="-2" transform="matrix(0.0889017 -0.99604 -0.978443 -0.206518 198.845 231.793)" stroke="#050A30" stroke-width="4"/>
<line y1="-2" x2="22.6888" y2="-2" transform="matrix(-0.573632 0.819113 0.516909 0.85604 219.298 143.156)" stroke="#050A30" stroke-width="4"/>
<line y1="-2" x2="10.6183" y2="-2" transform="matrix(0.963065 -0.26927 -0.117416 -0.993083 217.438 141.727)" stroke="#050A30" stroke-width="4"/>
<line y1="-2" x2="28.8327" y2="-2" transform="matrix(-0.128971 -0.991648 -0.955816 0.293967 231.383 167.461)" stroke="#050A30" stroke-width="4"/>
<line y1="-2" x2="46.0858" y2="-2" transform="matrix(0.121032 -0.992649 -0.960856 -0.277048 231.383 167.461)" stroke="#050A30" stroke-width="4"/>
<line y1="-2" x2="20.3813" y2="-2" transform="matrix(-0.410515 0.911854 0.68464 0.728881 247.187 105.992)" stroke="#050A30" stroke-width="4"/>
<line y1="-2" x2="16.6855" y2="-2" transform="matrix(0.334295 0.942468 0.766161 -0.642649 247.187 105.992)" stroke="#050A30" stroke-width="4"/>
<line y1="-2" x2="45.9826" y2="-2" transform="matrix(-0.101087 0.994878 0.972326 0.233629 257.413 75.9648)" stroke="#050A30" stroke-width="4"/>
<line y1="-2" x2="30.3745" y2="-2" transform="matrix(0.489699 -0.871891 0.953621 0.301011 257.413 77.4219)" stroke="#050A30" stroke-width="4"/>
<line y1="-2" x2="14.7543" y2="-2" transform="matrix(0.441061 0.897477 -0.963911 0.266226 270.428 50.9414)" stroke="#050A30" stroke-width="4"/>
<line y1="-2" x2="23.2317" y2="-2" transform="matrix(-0.280114 0.959967 -0.986819 -0.161829 283.443 41.8789)" stroke="#050A30" stroke-width="4"/>
<line y1="-2" x2="36.1341" y2="-2" transform="matrix(0.180094 0.983649 -0.994748 0.102355 283.443 41.8789)" stroke="#050A30" stroke-width="4"/>
<line y1="-2" x2="15.858" y2="-2" transform="matrix(-0.820725 -0.571324 0.778077 -0.628169 303.896 85.0898)" stroke="#050A30" stroke-width="4"/>
<line y1="-2" x2="10.3207" y2="-2" transform="matrix(0.990838 0.135055 -0.235698 0.971826 302.035 85.7852)" stroke="#050A30" stroke-width="4"/>
<line y1="-2" x2="14.426" y2="-2" transform="matrix(-0.257769 0.966207 -0.988946 -0.148276 315.98 73.2422)" stroke="#050A30" stroke-width="4"/>
<line y1="-2" x2="22.9886" y2="-2" transform="matrix(0.242636 0.970117 -0.990265 0.139195 315.98 73.2422)" stroke="#050A30" stroke-width="4"/>
<line y1="-2" x2="12.3324" y2="-2" transform="matrix(-0.678442 -0.734654 0.887579 -0.460655 331.785 103.207)" stroke="#050A30" stroke-width="4"/>
<line y1="-2" x2="9.48068" y2="-2" transform="matrix(0.588342 -0.808613 0.925606 0.37849 331.785 103.207)" stroke="#050A30" stroke-width="4"/>
<line y1="-2" x2="22.7809" y2="-2" transform="matrix(-0.204041 -0.978962 0.99321 -0.11634 342.011 117.844)" stroke="#050A30" stroke-width="4"/>
<line y1="-2" x2="33.8521" y2="-2" transform="matrix(-0.622874 -0.782322 -0.976095 0.217345 460.076 77.4219)" stroke="#050A30" stroke-width="4"/>
<line y1="-2" x2="16.1382" y2="-2" transform="matrix(-0.571624 0.820516 0.981544 0.191238 441.626 50.9414)" stroke="#050A30" stroke-width="4"/>
<line y1="-2" x2="24.1343" y2="-2" transform="matrix(0.382234 0.924065 0.993375 -0.114917 423.176 41.8789)" stroke="#050A30" stroke-width="4"/>
<line y1="-2" x2="36.7209" y2="-2" transform="matrix(-0.251218 0.96793 0.997376 0.0723949 423.176 41.8789)" stroke="#050A30" stroke-width="4"/>
<line y1="-2" x2="20.5544" y2="-2" transform="matrix(0.897613 -0.440784 -0.868958 -0.494886 394.184 85.0898)" stroke="#050A30" stroke-width="4"/>
<line y1="-2" x2="14.5632" y2="-2" transform="matrix(-0.995409 0.0957106 0.325129 0.94567 396.818 85.7852)" stroke="#050A30" stroke-width="4"/>
<line y1="-2" x2="14.902" y2="-2" transform="matrix(0.353737 0.935345 0.994453 -0.105181 377.051 73.2422)" stroke="#050A30" stroke-width="4"/>
<line y1="-2" x2="23.6619" y2="-2" transform="matrix(-0.33417 0.942513 0.99512 0.0986729 377.051 73.2422)" stroke="#050A30" stroke-width="4"/>
<line y1="-2" x2="14.9251" y2="-2" transform="matrix(0.794677 -0.607033 -0.939043 -0.3438 354.647 103.207)" stroke="#050A30" stroke-width="4"/>
<line y1="-2" x2="11.0133" y2="-2" transform="matrix(-0.717959 -0.696085 -0.960825 0.277156 354.647 103.207)" stroke="#050A30" stroke-width="4"/>
<line y1="-2" x2="23.2547" y2="-2" transform="matrix(0.283351 -0.959016 -0.996604 -0.08235 340.151 117.844)" stroke="#050A30" stroke-width="4"/>
<line y1="-2" x2="33.8521" y2="-2" transform="matrix(-0.622874 -0.782322 -0.976095 0.217345 580 35.543)" stroke="#050A30" stroke-width="4"/>
<line y1="-2" x2="16.1382" y2="-2" transform="matrix(-0.571624 0.820516 0.981544 0.191238 561.55 9.0625)" stroke="#050A30" stroke-width="4"/>
<line y1="-2" x2="24.1343" y2="-2" transform="matrix(0.382234 0.924065 0.993375 -0.114917 543.101 0)" stroke="#050A30" stroke-width="4"/>
<line y1="-2" x2="36.7209" y2="-2" transform="matrix(-0.251218 0.96793 0.997376 0.0723949 543.101 0)" stroke="#050A30" stroke-width="4"/>
<line y1="-2" x2="20.5544" y2="-2" transform="matrix(0.897613 -0.440784 -0.868958 -0.494886 514.107 43.207)" stroke="#050A30" stroke-width="4"/>
<line y1="-2" x2="14.5632" y2="-2" transform="matrix(-0.995409 0.0957106 0.325129 0.94567 516.743 43.9062)" stroke="#050A30" stroke-width="4"/>
<line y1="-2" x2="14.902" y2="-2" transform="matrix(0.353737 0.935345 0.994453 -0.105181 496.976 31.3633)" stroke="#050A30" stroke-width="4"/>
<line y1="-2" x2="23.6619" y2="-2" transform="matrix(-0.33417 0.942513 0.99512 0.0986729 496.976 31.3633)" stroke="#050A30" stroke-width="4"/>
<line y1="-2" x2="14.9251" y2="-2" transform="matrix(0.794677 -0.607033 -0.939043 -0.3438 474.572 61.332)" stroke="#050A30" stroke-width="4"/>
<line y1="-2" x2="11.0133" y2="-2" transform="matrix(-0.717959 -0.696085 -0.960825 0.277156 474.572 61.332)" stroke="#050A30" stroke-width="4"/>
<line y1="-2" x2="23.2547" y2="-2" transform="matrix(0.283351 -0.959016 -0.996604 -0.08235 460.076 75.9648)" stroke="#050A30" stroke-width="4"/>
</svg>
