<svg width="522" height="324" viewBox="0 0 522 324" fill="none" xmlns="http://www.w3.org/2000/svg">
<g clip-path="url(#clip0_2071_10434)" filter="url(#filter0_d_2071_10434)">
<line y1="52.3242" x2="490" y2="52.3242" stroke="#EEEEEE"/>
<line x1="-0.00292969" y1="103.66" x2="489.997" y2="103.66" stroke="#EEEEEE"/>
<line x1="-0.00195312" y1="158.5" x2="489.998" y2="158.5" stroke="#EEEEEE"/>
<line y1="210.168" x2="490" y2="210.168" stroke="#EEEEEE"/>
<line y1="262.832" x2="490" y2="262.832" stroke="#EEEEEE"/>
<line y1="315.5" x2="517" y2="315.5" stroke="#EEEEEE"/>
<path d="M-0.500221 262L119.245 251.742L226.035 244.84L332.522 222.397L433.271 148.354L489.999 46.9988" stroke="#3751FF" stroke-width="2"/>
<path d="M-1.5 262L114.5 255.5L224.55 251.324L333.524 239.09L439.969 187.991L490 141.001" stroke="#FFC043" stroke-width="2"/>
<path d="M0 262L122.584 259.326L234.42 257.732L348.314 247.769L459.197 211.899L491.466 188.804" stroke="#E11900" stroke-width="2"/>
<path d="M47.56 41H46.71V35.92H44.87V35.24C45.11 35.24 45.3433 35.2233 45.57 35.19C45.7967 35.15 46 35.08 46.18 34.98C46.3667 34.88 46.5233 34.7433 46.65 34.57C46.7767 34.3967 46.8633 34.1767 46.91 33.91H47.56V41ZM54.0098 35.92C54.0098 36.0667 54.0165 36.2267 54.0298 36.4C54.0498 36.5667 54.0898 36.7233 54.1498 36.87C54.2098 37.01 54.2932 37.13 54.3998 37.23C54.5132 37.3233 54.6632 37.37 54.8498 37.37C55.0432 37.37 55.1965 37.3233 55.3098 37.23C55.4232 37.1367 55.5098 37.02 55.5698 36.88C55.6365 36.7333 55.6798 36.5733 55.6998 36.4C55.7198 36.2267 55.7298 36.0633 55.7298 35.91C55.7298 35.7633 55.7198 35.6067 55.6998 35.44C55.6865 35.2667 55.6498 35.11 55.5898 34.97C55.5298 34.8233 55.4432 34.7033 55.3298 34.61C55.2232 34.51 55.0732 34.46 54.8798 34.46C54.6932 34.46 54.5432 34.51 54.4298 34.61C54.3165 34.7033 54.2265 34.8233 54.1598 34.97C54.0998 35.11 54.0598 35.2667 54.0398 35.44C54.0198 35.6067 54.0098 35.7667 54.0098 35.92ZM53.2598 35.94C53.2598 35.6667 53.2865 35.41 53.3398 35.17C53.3932 34.9233 53.4832 34.7067 53.6098 34.52C53.7365 34.3333 53.9032 34.1867 54.1098 34.08C54.3165 33.9667 54.5732 33.91 54.8798 33.91C55.1932 33.91 55.4498 33.9633 55.6498 34.07C55.8565 34.1767 56.0198 34.32 56.1398 34.5C56.2665 34.68 56.3532 34.8933 56.3998 35.14C56.4532 35.38 56.4798 35.6367 56.4798 35.91C56.4798 36.17 56.4498 36.4233 56.3898 36.67C56.3365 36.91 56.2432 37.1233 56.1098 37.31C55.9832 37.49 55.8198 37.6367 55.6198 37.75C55.4198 37.8633 55.1732 37.92 54.8798 37.92C54.5798 37.92 54.3265 37.87 54.1198 37.77C53.9132 37.6633 53.7465 37.52 53.6198 37.34C53.4932 37.16 53.3998 36.95 53.3398 36.71C53.2865 36.47 53.2598 36.2133 53.2598 35.94ZM58.9498 39.12C58.9498 39.2667 58.9565 39.4267 58.9698 39.6C58.9898 39.7667 59.0298 39.9233 59.0898 40.07C59.1498 40.21 59.2332 40.33 59.3398 40.43C59.4532 40.5233 59.6032 40.57 59.7898 40.57C59.9832 40.57 60.1365 40.5233 60.2498 40.43C60.3632 40.3367 60.4498 40.22 60.5098 40.08C60.5765 39.9333 60.6198 39.7733 60.6398 39.6C60.6598 39.4267 60.6698 39.2633 60.6698 39.11C60.6698 38.9633 60.6598 38.8067 60.6398 38.64C60.6265 38.4667 60.5898 38.31 60.5298 38.17C60.4698 38.0233 60.3832 37.9033 60.2698 37.81C60.1632 37.71 60.0132 37.66 59.8198 37.66C59.6332 37.66 59.4832 37.71 59.3698 37.81C59.2565 37.9033 59.1665 38.0233 59.0998 38.17C59.0398 38.31 58.9998 38.4667 58.9798 38.64C58.9598 38.8067 58.9498 38.9667 58.9498 39.12ZM58.1998 39.14C58.1998 38.8667 58.2265 38.61 58.2798 38.37C58.3332 38.1233 58.4232 37.9067 58.5498 37.72C58.6765 37.5333 58.8432 37.3867 59.0498 37.28C59.2565 37.1667 59.5132 37.11 59.8198 37.11C60.1332 37.11 60.3898 37.1633 60.5898 37.27C60.7965 37.3767 60.9598 37.52 61.0798 37.7C61.2065 37.88 61.2932 38.0933 61.3398 38.34C61.3932 38.58 61.4198 38.8367 61.4198 39.11C61.4198 39.37 61.3898 39.6233 61.3298 39.87C61.2765 40.11 61.1832 40.3233 61.0498 40.51C60.9232 40.69 60.7598 40.8367 60.5598 40.95C60.3598 41.0567 60.1132 41.11 59.8198 41.11C59.5198 41.11 59.2665 41.06 59.0598 40.96C58.8532 40.8533 58.6865 40.7133 58.5598 40.54C58.4332 40.36 58.3398 40.15 58.2798 39.91C58.2265 39.67 58.1998 39.4133 58.1998 39.14ZM59.5998 33.78H60.4498L55.0798 41.21H54.2198L59.5998 33.78ZM65.903 33.86H70.593V34.66H66.853V36.93H70.133V37.73H66.853V41H65.903V33.86ZM75.0952 37.92C75.0819 37.72 75.0352 37.53 74.9552 37.35C74.8819 37.17 74.7786 37.0167 74.6452 36.89C74.5186 36.7567 74.3652 36.6533 74.1852 36.58C74.0119 36.5 73.8186 36.46 73.6052 36.46C73.3852 36.46 73.1852 36.5 73.0052 36.58C72.8319 36.6533 72.6819 36.7567 72.5552 36.89C72.4286 37.0233 72.3286 37.18 72.2552 37.36C72.1819 37.5333 72.1386 37.72 72.1252 37.92H75.0952ZM75.9152 39.36C75.8019 39.94 75.5519 40.3767 75.1652 40.67C74.7786 40.9633 74.2919 41.11 73.7052 41.11C73.2919 41.11 72.9319 41.0433 72.6252 40.91C72.3252 40.7767 72.0719 40.59 71.8652 40.35C71.6586 40.11 71.5019 39.8233 71.3952 39.49C71.2952 39.1567 71.2386 38.7933 71.2252 38.4C71.2252 38.0067 71.2852 37.6467 71.4052 37.32C71.5252 36.9933 71.6919 36.71 71.9052 36.47C72.1252 36.23 72.3819 36.0433 72.6752 35.91C72.9752 35.7767 73.3019 35.71 73.6552 35.71C74.1152 35.71 74.4952 35.8067 74.7952 36C75.1019 36.1867 75.3452 36.4267 75.5252 36.72C75.7119 37.0133 75.8386 37.3333 75.9052 37.68C75.9786 38.0267 76.0086 38.3567 75.9952 38.67H72.1252C72.1186 38.8967 72.1452 39.1133 72.2052 39.32C72.2652 39.52 72.3619 39.7 72.4952 39.86C72.6286 40.0133 72.7986 40.1367 73.0052 40.23C73.2119 40.3233 73.4552 40.37 73.7352 40.37C74.0952 40.37 74.3886 40.2867 74.6152 40.12C74.8486 39.9533 75.0019 39.7 75.0752 39.36H75.9152ZM80.4663 37.92C80.453 37.72 80.4063 37.53 80.3263 37.35C80.253 37.17 80.1497 37.0167 80.0163 36.89C79.8897 36.7567 79.7363 36.6533 79.5563 36.58C79.383 36.5 79.1897 36.46 78.9763 36.46C78.7563 36.46 78.5563 36.5 78.3763 36.58C78.203 36.6533 78.053 36.7567 77.9263 36.89C77.7997 37.0233 77.6997 37.18 77.6263 37.36C77.553 37.5333 77.5097 37.72 77.4963 37.92H80.4663ZM81.2863 39.36C81.173 39.94 80.923 40.3767 80.5363 40.67C80.1497 40.9633 79.663 41.11 79.0763 41.11C78.663 41.11 78.303 41.0433 77.9963 40.91C77.6963 40.7767 77.443 40.59 77.2363 40.35C77.0297 40.11 76.873 39.8233 76.7663 39.49C76.6663 39.1567 76.6097 38.7933 76.5963 38.4C76.5963 38.0067 76.6563 37.6467 76.7763 37.32C76.8963 36.9933 77.063 36.71 77.2763 36.47C77.4963 36.23 77.753 36.0433 78.0463 35.91C78.3463 35.7767 78.673 35.71 79.0263 35.71C79.4863 35.71 79.8663 35.8067 80.1663 36C80.473 36.1867 80.7163 36.4267 80.8963 36.72C81.083 37.0133 81.2097 37.3333 81.2763 37.68C81.3497 38.0267 81.3797 38.3567 81.3663 38.67H77.4963C77.4897 38.8967 77.5163 39.1133 77.5763 39.32C77.6363 39.52 77.733 39.7 77.8663 39.86C77.9997 40.0133 78.1697 40.1367 78.3763 40.23C78.583 40.3233 78.8263 40.37 79.1063 40.37C79.4663 40.37 79.7597 40.2867 79.9863 40.12C80.2197 39.9533 80.373 39.7 80.4463 39.36H81.2863ZM82.7674 39.37C82.7741 39.5567 82.8174 39.7167 82.8974 39.85C82.9774 39.9767 83.0808 40.08 83.2074 40.16C83.3408 40.2333 83.4874 40.2867 83.6474 40.32C83.8141 40.3533 83.9841 40.37 84.1574 40.37C84.2908 40.37 84.4308 40.36 84.5774 40.34C84.7241 40.32 84.8574 40.2833 84.9774 40.23C85.1041 40.1767 85.2074 40.1 85.2874 40C85.3674 39.8933 85.4074 39.76 85.4074 39.6C85.4074 39.38 85.3241 39.2133 85.1574 39.1C84.9908 38.9867 84.7808 38.8967 84.5274 38.83C84.2808 38.7567 84.0108 38.6933 83.7174 38.64C83.4241 38.58 83.1508 38.5 82.8974 38.4C82.6508 38.2933 82.4441 38.1467 82.2774 37.96C82.1108 37.7733 82.0274 37.5133 82.0274 37.18C82.0274 36.92 82.0841 36.6967 82.1974 36.51C82.3174 36.3233 82.4674 36.1733 82.6474 36.06C82.8341 35.94 83.0408 35.8533 83.2674 35.8C83.5008 35.74 83.7308 35.71 83.9574 35.71C84.2508 35.71 84.5208 35.7367 84.7674 35.79C85.0141 35.8367 85.2308 35.9233 85.4174 36.05C85.6108 36.17 85.7641 36.3367 85.8774 36.55C85.9908 36.7567 86.0574 37.0167 86.0774 37.33H85.2274C85.2141 37.1633 85.1708 37.0267 85.0974 36.92C85.0241 36.8067 84.9308 36.7167 84.8174 36.65C84.7041 36.5833 84.5774 36.5367 84.4374 36.51C84.3041 36.4767 84.1674 36.46 84.0274 36.46C83.9008 36.46 83.7708 36.47 83.6374 36.49C83.5108 36.51 83.3941 36.5467 83.2874 36.6C83.1808 36.6467 83.0941 36.7133 83.0274 36.8C82.9608 36.88 82.9274 36.9867 82.9274 37.12C82.9274 37.2667 82.9774 37.39 83.0774 37.49C83.1841 37.5833 83.3174 37.6633 83.4774 37.73C83.6374 37.79 83.8174 37.8433 84.0174 37.89C84.2174 37.93 84.4174 37.9733 84.6174 38.02C84.8308 38.0667 85.0374 38.1233 85.2374 38.19C85.4441 38.2567 85.6241 38.3467 85.7774 38.46C85.9374 38.5667 86.0641 38.7033 86.1574 38.87C86.2574 39.0367 86.3074 39.2433 86.3074 39.49C86.3074 39.8033 86.2408 40.0633 86.1074 40.27C85.9808 40.4767 85.8108 40.6433 85.5974 40.77C85.3908 40.8967 85.1541 40.9833 84.8874 41.03C84.6274 41.0833 84.3674 41.11 84.1074 41.11C83.8208 41.11 83.5474 41.08 83.2874 41.02C83.0274 40.96 82.7974 40.8633 82.5974 40.73C82.3974 40.59 82.2374 40.41 82.1174 40.19C81.9974 39.9633 81.9308 39.69 81.9174 39.37H82.7674Z" fill="black"/>
<path d="M45.32 19.51C45.32 19.7767 45.3267 20.0767 45.34 20.41C45.36 20.7367 45.4133 21.0467 45.5 21.34C45.5933 21.6267 45.74 21.87 45.94 22.07C46.14 22.27 46.42 22.37 46.78 22.37C47.14 22.37 47.42 22.27 47.62 22.07C47.82 21.87 47.9633 21.6267 48.05 21.34C48.1433 21.0467 48.1967 20.7367 48.21 20.41C48.23 20.0767 48.24 19.7767 48.24 19.51C48.24 19.3367 48.2367 19.1467 48.23 18.94C48.23 18.7267 48.2133 18.5167 48.18 18.31C48.1533 18.0967 48.11 17.89 48.05 17.69C47.9967 17.49 47.9133 17.3167 47.8 17.17C47.6933 17.0167 47.5567 16.8933 47.39 16.8C47.2233 16.7067 47.02 16.66 46.78 16.66C46.54 16.66 46.3367 16.7067 46.17 16.8C46.0033 16.8933 45.8633 17.0167 45.75 17.17C45.6433 17.3167 45.56 17.49 45.5 17.69C45.4467 17.89 45.4033 18.0967 45.37 18.31C45.3433 18.5167 45.3267 18.7267 45.32 18.94C45.32 19.1467 45.32 19.3367 45.32 19.51ZM44.42 19.52C44.42 19.26 44.4267 18.99 44.44 18.71C44.4533 18.43 44.4867 18.1567 44.54 17.89C44.5933 17.6233 44.67 17.37 44.77 17.13C44.87 16.89 45.0067 16.68 45.18 16.5C45.3533 16.32 45.57 16.1767 45.83 16.07C46.0967 15.9633 46.4133 15.91 46.78 15.91C47.1467 15.91 47.46 15.9633 47.72 16.07C47.9867 16.1767 48.2067 16.32 48.38 16.5C48.5533 16.68 48.69 16.89 48.79 17.13C48.89 17.37 48.9667 17.6233 49.02 17.89C49.0733 18.1567 49.1067 18.43 49.12 18.71C49.1333 18.99 49.14 19.26 49.14 19.52C49.14 19.78 49.1333 20.05 49.12 20.33C49.1067 20.61 49.0733 20.8833 49.02 21.15C48.9667 21.4167 48.89 21.67 48.79 21.91C48.69 22.1433 48.5533 22.35 48.38 22.53C48.2067 22.71 47.99 22.8533 47.73 22.96C47.47 23.06 47.1533 23.11 46.78 23.11C46.4133 23.11 46.0967 23.06 45.83 22.96C45.57 22.8533 45.3533 22.71 45.18 22.53C45.0067 22.35 44.87 22.1433 44.77 21.91C44.67 21.67 44.5933 21.4167 44.54 21.15C44.4867 20.8833 44.4533 20.61 44.44 20.33C44.4267 20.05 44.42 19.78 44.42 19.52ZM54.0098 17.92C54.0098 18.0667 54.0165 18.2267 54.0298 18.4C54.0498 18.5667 54.0898 18.7233 54.1498 18.87C54.2098 19.01 54.2932 19.13 54.3998 19.23C54.5132 19.3233 54.6632 19.37 54.8498 19.37C55.0432 19.37 55.1965 19.3233 55.3098 19.23C55.4232 19.1367 55.5098 19.02 55.5698 18.88C55.6365 18.7333 55.6798 18.5733 55.6998 18.4C55.7198 18.2267 55.7298 18.0633 55.7298 17.91C55.7298 17.7633 55.7198 17.6067 55.6998 17.44C55.6865 17.2667 55.6498 17.11 55.5898 16.97C55.5298 16.8233 55.4432 16.7033 55.3298 16.61C55.2232 16.51 55.0732 16.46 54.8798 16.46C54.6932 16.46 54.5432 16.51 54.4298 16.61C54.3165 16.7033 54.2265 16.8233 54.1598 16.97C54.0998 17.11 54.0598 17.2667 54.0398 17.44C54.0198 17.6067 54.0098 17.7667 54.0098 17.92ZM53.2598 17.94C53.2598 17.6667 53.2865 17.41 53.3398 17.17C53.3932 16.9233 53.4832 16.7067 53.6098 16.52C53.7365 16.3333 53.9032 16.1867 54.1098 16.08C54.3165 15.9667 54.5732 15.91 54.8798 15.91C55.1932 15.91 55.4498 15.9633 55.6498 16.07C55.8565 16.1767 56.0198 16.32 56.1398 16.5C56.2665 16.68 56.3532 16.8933 56.3998 17.14C56.4532 17.38 56.4798 17.6367 56.4798 17.91C56.4798 18.17 56.4498 18.4233 56.3898 18.67C56.3365 18.91 56.2432 19.1233 56.1098 19.31C55.9832 19.49 55.8198 19.6367 55.6198 19.75C55.4198 19.8633 55.1732 19.92 54.8798 19.92C54.5798 19.92 54.3265 19.87 54.1198 19.77C53.9132 19.6633 53.7465 19.52 53.6198 19.34C53.4932 19.16 53.3998 18.95 53.3398 18.71C53.2865 18.47 53.2598 18.2133 53.2598 17.94ZM58.9498 21.12C58.9498 21.2667 58.9565 21.4267 58.9698 21.6C58.9898 21.7667 59.0298 21.9233 59.0898 22.07C59.1498 22.21 59.2332 22.33 59.3398 22.43C59.4532 22.5233 59.6032 22.57 59.7898 22.57C59.9832 22.57 60.1365 22.5233 60.2498 22.43C60.3632 22.3367 60.4498 22.22 60.5098 22.08C60.5765 21.9333 60.6198 21.7733 60.6398 21.6C60.6598 21.4267 60.6698 21.2633 60.6698 21.11C60.6698 20.9633 60.6598 20.8067 60.6398 20.64C60.6265 20.4667 60.5898 20.31 60.5298 20.17C60.4698 20.0233 60.3832 19.9033 60.2698 19.81C60.1632 19.71 60.0132 19.66 59.8198 19.66C59.6332 19.66 59.4832 19.71 59.3698 19.81C59.2565 19.9033 59.1665 20.0233 59.0998 20.17C59.0398 20.31 58.9998 20.4667 58.9798 20.64C58.9598 20.8067 58.9498 20.9667 58.9498 21.12ZM58.1998 21.14C58.1998 20.8667 58.2265 20.61 58.2798 20.37C58.3332 20.1233 58.4232 19.9067 58.5498 19.72C58.6765 19.5333 58.8432 19.3867 59.0498 19.28C59.2565 19.1667 59.5132 19.11 59.8198 19.11C60.1332 19.11 60.3898 19.1633 60.5898 19.27C60.7965 19.3767 60.9598 19.52 61.0798 19.7C61.2065 19.88 61.2932 20.0933 61.3398 20.34C61.3932 20.58 61.4198 20.8367 61.4198 21.11C61.4198 21.37 61.3898 21.6233 61.3298 21.87C61.2765 22.11 61.1832 22.3233 61.0498 22.51C60.9232 22.69 60.7598 22.8367 60.5598 22.95C60.3598 23.0567 60.1132 23.11 59.8198 23.11C59.5198 23.11 59.2665 23.06 59.0598 22.96C58.8532 22.8533 58.6865 22.7133 58.5598 22.54C58.4332 22.36 58.3398 22.15 58.2798 21.91C58.2265 21.67 58.1998 21.4133 58.1998 21.14ZM59.5998 15.78H60.4498L55.0798 23.21H54.2198L59.5998 15.78ZM65.903 15.86H70.593V16.66H66.853V18.93H70.133V19.73H66.853V23H65.903V15.86ZM75.0952 19.92C75.0819 19.72 75.0352 19.53 74.9552 19.35C74.8819 19.17 74.7786 19.0167 74.6452 18.89C74.5186 18.7567 74.3652 18.6533 74.1852 18.58C74.0119 18.5 73.8186 18.46 73.6052 18.46C73.3852 18.46 73.1852 18.5 73.0052 18.58C72.8319 18.6533 72.6819 18.7567 72.5552 18.89C72.4286 19.0233 72.3286 19.18 72.2552 19.36C72.1819 19.5333 72.1386 19.72 72.1252 19.92H75.0952ZM75.9152 21.36C75.8019 21.94 75.5519 22.3767 75.1652 22.67C74.7786 22.9633 74.2919 23.11 73.7052 23.11C73.2919 23.11 72.9319 23.0433 72.6252 22.91C72.3252 22.7767 72.0719 22.59 71.8652 22.35C71.6586 22.11 71.5019 21.8233 71.3952 21.49C71.2952 21.1567 71.2386 20.7933 71.2252 20.4C71.2252 20.0067 71.2852 19.6467 71.4052 19.32C71.5252 18.9933 71.6919 18.71 71.9052 18.47C72.1252 18.23 72.3819 18.0433 72.6752 17.91C72.9752 17.7767 73.3019 17.71 73.6552 17.71C74.1152 17.71 74.4952 17.8067 74.7952 18C75.1019 18.1867 75.3452 18.4267 75.5252 18.72C75.7119 19.0133 75.8386 19.3333 75.9052 19.68C75.9786 20.0267 76.0086 20.3567 75.9952 20.67H72.1252C72.1186 20.8967 72.1452 21.1133 72.2052 21.32C72.2652 21.52 72.3619 21.7 72.4952 21.86C72.6286 22.0133 72.7986 22.1367 73.0052 22.23C73.2119 22.3233 73.4552 22.37 73.7352 22.37C74.0952 22.37 74.3886 22.2867 74.6152 22.12C74.8486 21.9533 75.0019 21.7 75.0752 21.36H75.9152ZM80.4663 19.92C80.453 19.72 80.4063 19.53 80.3263 19.35C80.253 19.17 80.1497 19.0167 80.0163 18.89C79.8897 18.7567 79.7363 18.6533 79.5563 18.58C79.383 18.5 79.1897 18.46 78.9763 18.46C78.7563 18.46 78.5563 18.5 78.3763 18.58C78.203 18.6533 78.053 18.7567 77.9263 18.89C77.7997 19.0233 77.6997 19.18 77.6263 19.36C77.553 19.5333 77.5097 19.72 77.4963 19.92H80.4663ZM81.2863 21.36C81.173 21.94 80.923 22.3767 80.5363 22.67C80.1497 22.9633 79.663 23.11 79.0763 23.11C78.663 23.11 78.303 23.0433 77.9963 22.91C77.6963 22.7767 77.443 22.59 77.2363 22.35C77.0297 22.11 76.873 21.8233 76.7663 21.49C76.6663 21.1567 76.6097 20.7933 76.5963 20.4C76.5963 20.0067 76.6563 19.6467 76.7763 19.32C76.8963 18.9933 77.063 18.71 77.2763 18.47C77.4963 18.23 77.753 18.0433 78.0463 17.91C78.3463 17.7767 78.673 17.71 79.0263 17.71C79.4863 17.71 79.8663 17.8067 80.1663 18C80.473 18.1867 80.7163 18.4267 80.8963 18.72C81.083 19.0133 81.2097 19.3333 81.2763 19.68C81.3497 20.0267 81.3797 20.3567 81.3663 20.67H77.4963C77.4897 20.8967 77.5163 21.1133 77.5763 21.32C77.6363 21.52 77.733 21.7 77.8663 21.86C77.9997 22.0133 78.1697 22.1367 78.3763 22.23C78.583 22.3233 78.8263 22.37 79.1063 22.37C79.4663 22.37 79.7597 22.2867 79.9863 22.12C80.2197 21.9533 80.373 21.7 80.4463 21.36H81.2863ZM82.7674 21.37C82.7741 21.5567 82.8174 21.7167 82.8974 21.85C82.9774 21.9767 83.0808 22.08 83.2074 22.16C83.3408 22.2333 83.4874 22.2867 83.6474 22.32C83.8141 22.3533 83.9841 22.37 84.1574 22.37C84.2908 22.37 84.4308 22.36 84.5774 22.34C84.7241 22.32 84.8574 22.2833 84.9774 22.23C85.1041 22.1767 85.2074 22.1 85.2874 22C85.3674 21.8933 85.4074 21.76 85.4074 21.6C85.4074 21.38 85.3241 21.2133 85.1574 21.1C84.9908 20.9867 84.7808 20.8967 84.5274 20.83C84.2808 20.7567 84.0108 20.6933 83.7174 20.64C83.4241 20.58 83.1508 20.5 82.8974 20.4C82.6508 20.2933 82.4441 20.1467 82.2774 19.96C82.1108 19.7733 82.0274 19.5133 82.0274 19.18C82.0274 18.92 82.0841 18.6967 82.1974 18.51C82.3174 18.3233 82.4674 18.1733 82.6474 18.06C82.8341 17.94 83.0408 17.8533 83.2674 17.8C83.5008 17.74 83.7308 17.71 83.9574 17.71C84.2508 17.71 84.5208 17.7367 84.7674 17.79C85.0141 17.8367 85.2308 17.9233 85.4174 18.05C85.6108 18.17 85.7641 18.3367 85.8774 18.55C85.9908 18.7567 86.0574 19.0167 86.0774 19.33H85.2274C85.2141 19.1633 85.1708 19.0267 85.0974 18.92C85.0241 18.8067 84.9308 18.7167 84.8174 18.65C84.7041 18.5833 84.5774 18.5367 84.4374 18.51C84.3041 18.4767 84.1674 18.46 84.0274 18.46C83.9008 18.46 83.7708 18.47 83.6374 18.49C83.5108 18.51 83.3941 18.5467 83.2874 18.6C83.1808 18.6467 83.0941 18.7133 83.0274 18.8C82.9608 18.88 82.9274 18.9867 82.9274 19.12C82.9274 19.2667 82.9774 19.39 83.0774 19.49C83.1841 19.5833 83.3174 19.6633 83.4774 19.73C83.6374 19.79 83.8174 19.8433 84.0174 19.89C84.2174 19.93 84.4174 19.9733 84.6174 20.02C84.8308 20.0667 85.0374 20.1233 85.2374 20.19C85.4441 20.2567 85.6241 20.3467 85.7774 20.46C85.9374 20.5667 86.0641 20.7033 86.1574 20.87C86.2574 21.0367 86.3074 21.2433 86.3074 21.49C86.3074 21.8033 86.2408 22.0633 86.1074 22.27C85.9808 22.4767 85.8108 22.6433 85.5974 22.77C85.3908 22.8967 85.1541 22.9833 84.8874 23.03C84.6274 23.0833 84.3674 23.11 84.1074 23.11C83.8208 23.11 83.5474 23.08 83.2874 23.02C83.0274 22.96 82.7974 22.8633 82.5974 22.73C82.3974 22.59 82.2374 22.41 82.1174 22.19C81.9974 21.9633 81.9308 21.69 81.9174 21.37H82.7674Z" fill="black"/>
<line y1="19" x2="32" y2="19" stroke="#3751FF" stroke-width="2"/>
<line y1="37" x2="32" y2="37" stroke="#FFC043" stroke-width="2"/>
<line y1="55" x2="32" y2="55" stroke="#E11900" stroke-width="2"/>
<path d="M44.44 54.42C44.42 54.06 44.4567 53.7267 44.55 53.42C44.6433 53.1133 44.7867 52.85 44.98 52.63C45.18 52.4033 45.4267 52.2267 45.72 52.1C46.0133 51.9733 46.3467 51.91 46.72 51.91C47.0267 51.91 47.3133 51.9567 47.58 52.05C47.8533 52.1367 48.09 52.2667 48.29 52.44C48.49 52.6067 48.6467 52.8167 48.76 53.07C48.88 53.3233 48.94 53.6167 48.94 53.95C48.94 54.2633 48.89 54.54 48.79 54.78C48.6967 55.02 48.57 55.2367 48.41 55.43C48.25 55.6167 48.0667 55.7867 47.86 55.94C47.6533 56.0933 47.44 56.24 47.22 56.38C47 56.5133 46.78 56.6467 46.56 56.78C46.34 56.9067 46.1367 57.0433 45.95 57.19C45.77 57.3367 45.6133 57.4967 45.48 57.67C45.3533 57.8367 45.27 58.03 45.23 58.25H48.87V59H44.24C44.2733 58.58 44.3467 58.2233 44.46 57.93C44.58 57.63 44.73 57.37 44.91 57.15C45.09 56.93 45.2933 56.7367 45.52 56.57C45.7467 56.4033 45.9833 56.2467 46.23 56.1C46.53 55.9133 46.7933 55.7433 47.02 55.59C47.2467 55.43 47.4333 55.27 47.58 55.11C47.7333 54.95 47.8467 54.7767 47.92 54.59C48 54.4033 48.04 54.1867 48.04 53.94C48.04 53.7467 48.0033 53.5733 47.93 53.42C47.8567 53.26 47.7567 53.1233 47.63 53.01C47.51 52.8967 47.3667 52.81 47.2 52.75C47.0333 52.69 46.8567 52.66 46.67 52.66C46.4233 52.66 46.21 52.7133 46.03 52.82C45.8567 52.92 45.7133 53.0533 45.6 53.22C45.4867 53.3867 45.4033 53.5767 45.35 53.79C45.3033 53.9967 45.2833 54.2067 45.29 54.42H44.44ZM54.0098 53.92C54.0098 54.0667 54.0165 54.2267 54.0298 54.4C54.0498 54.5667 54.0898 54.7233 54.1498 54.87C54.2098 55.01 54.2932 55.13 54.3998 55.23C54.5132 55.3233 54.6632 55.37 54.8498 55.37C55.0432 55.37 55.1965 55.3233 55.3098 55.23C55.4232 55.1367 55.5098 55.02 55.5698 54.88C55.6365 54.7333 55.6798 54.5733 55.6998 54.4C55.7198 54.2267 55.7298 54.0633 55.7298 53.91C55.7298 53.7633 55.7198 53.6067 55.6998 53.44C55.6865 53.2667 55.6498 53.11 55.5898 52.97C55.5298 52.8233 55.4432 52.7033 55.3298 52.61C55.2232 52.51 55.0732 52.46 54.8798 52.46C54.6932 52.46 54.5432 52.51 54.4298 52.61C54.3165 52.7033 54.2265 52.8233 54.1598 52.97C54.0998 53.11 54.0598 53.2667 54.0398 53.44C54.0198 53.6067 54.0098 53.7667 54.0098 53.92ZM53.2598 53.94C53.2598 53.6667 53.2865 53.41 53.3398 53.17C53.3932 52.9233 53.4832 52.7067 53.6098 52.52C53.7365 52.3333 53.9032 52.1867 54.1098 52.08C54.3165 51.9667 54.5732 51.91 54.8798 51.91C55.1932 51.91 55.4498 51.9633 55.6498 52.07C55.8565 52.1767 56.0198 52.32 56.1398 52.5C56.2665 52.68 56.3532 52.8933 56.3998 53.14C56.4532 53.38 56.4798 53.6367 56.4798 53.91C56.4798 54.17 56.4498 54.4233 56.3898 54.67C56.3365 54.91 56.2432 55.1233 56.1098 55.31C55.9832 55.49 55.8198 55.6367 55.6198 55.75C55.4198 55.8633 55.1732 55.92 54.8798 55.92C54.5798 55.92 54.3265 55.87 54.1198 55.77C53.9132 55.6633 53.7465 55.52 53.6198 55.34C53.4932 55.16 53.3998 54.95 53.3398 54.71C53.2865 54.47 53.2598 54.2133 53.2598 53.94ZM58.9498 57.12C58.9498 57.2667 58.9565 57.4267 58.9698 57.6C58.9898 57.7667 59.0298 57.9233 59.0898 58.07C59.1498 58.21 59.2332 58.33 59.3398 58.43C59.4532 58.5233 59.6032 58.57 59.7898 58.57C59.9832 58.57 60.1365 58.5233 60.2498 58.43C60.3632 58.3367 60.4498 58.22 60.5098 58.08C60.5765 57.9333 60.6198 57.7733 60.6398 57.6C60.6598 57.4267 60.6698 57.2633 60.6698 57.11C60.6698 56.9633 60.6598 56.8067 60.6398 56.64C60.6265 56.4667 60.5898 56.31 60.5298 56.17C60.4698 56.0233 60.3832 55.9033 60.2698 55.81C60.1632 55.71 60.0132 55.66 59.8198 55.66C59.6332 55.66 59.4832 55.71 59.3698 55.81C59.2565 55.9033 59.1665 56.0233 59.0998 56.17C59.0398 56.31 58.9998 56.4667 58.9798 56.64C58.9598 56.8067 58.9498 56.9667 58.9498 57.12ZM58.1998 57.14C58.1998 56.8667 58.2265 56.61 58.2798 56.37C58.3332 56.1233 58.4232 55.9067 58.5498 55.72C58.6765 55.5333 58.8432 55.3867 59.0498 55.28C59.2565 55.1667 59.5132 55.11 59.8198 55.11C60.1332 55.11 60.3898 55.1633 60.5898 55.27C60.7965 55.3767 60.9598 55.52 61.0798 55.7C61.2065 55.88 61.2932 56.0933 61.3398 56.34C61.3932 56.58 61.4198 56.8367 61.4198 57.11C61.4198 57.37 61.3898 57.6233 61.3298 57.87C61.2765 58.11 61.1832 58.3233 61.0498 58.51C60.9232 58.69 60.7598 58.8367 60.5598 58.95C60.3598 59.0567 60.1132 59.11 59.8198 59.11C59.5198 59.11 59.2665 59.06 59.0598 58.96C58.8532 58.8533 58.6865 58.7133 58.5598 58.54C58.4332 58.36 58.3398 58.15 58.2798 57.91C58.2265 57.67 58.1998 57.4133 58.1998 57.14ZM59.5998 51.78H60.4498L55.0798 59.21H54.2198L59.5998 51.78ZM65.903 51.86H70.593V52.66H66.853V54.93H70.133V55.73H66.853V59H65.903V51.86ZM75.0952 55.92C75.0819 55.72 75.0352 55.53 74.9552 55.35C74.8819 55.17 74.7786 55.0167 74.6452 54.89C74.5186 54.7567 74.3652 54.6533 74.1852 54.58C74.0119 54.5 73.8186 54.46 73.6052 54.46C73.3852 54.46 73.1852 54.5 73.0052 54.58C72.8319 54.6533 72.6819 54.7567 72.5552 54.89C72.4286 55.0233 72.3286 55.18 72.2552 55.36C72.1819 55.5333 72.1386 55.72 72.1252 55.92H75.0952ZM75.9152 57.36C75.8019 57.94 75.5519 58.3767 75.1652 58.67C74.7786 58.9633 74.2919 59.11 73.7052 59.11C73.2919 59.11 72.9319 59.0433 72.6252 58.91C72.3252 58.7767 72.0719 58.59 71.8652 58.35C71.6586 58.11 71.5019 57.8233 71.3952 57.49C71.2952 57.1567 71.2386 56.7933 71.2252 56.4C71.2252 56.0067 71.2852 55.6467 71.4052 55.32C71.5252 54.9933 71.6919 54.71 71.9052 54.47C72.1252 54.23 72.3819 54.0433 72.6752 53.91C72.9752 53.7767 73.3019 53.71 73.6552 53.71C74.1152 53.71 74.4952 53.8067 74.7952 54C75.1019 54.1867 75.3452 54.4267 75.5252 54.72C75.7119 55.0133 75.8386 55.3333 75.9052 55.68C75.9786 56.0267 76.0086 56.3567 75.9952 56.67H72.1252C72.1186 56.8967 72.1452 57.1133 72.2052 57.32C72.2652 57.52 72.3619 57.7 72.4952 57.86C72.6286 58.0133 72.7986 58.1367 73.0052 58.23C73.2119 58.3233 73.4552 58.37 73.7352 58.37C74.0952 58.37 74.3886 58.2867 74.6152 58.12C74.8486 57.9533 75.0019 57.7 75.0752 57.36H75.9152ZM80.4663 55.92C80.453 55.72 80.4063 55.53 80.3263 55.35C80.253 55.17 80.1497 55.0167 80.0163 54.89C79.8897 54.7567 79.7363 54.6533 79.5563 54.58C79.383 54.5 79.1897 54.46 78.9763 54.46C78.7563 54.46 78.5563 54.5 78.3763 54.58C78.203 54.6533 78.053 54.7567 77.9263 54.89C77.7997 55.0233 77.6997 55.18 77.6263 55.36C77.553 55.5333 77.5097 55.72 77.4963 55.92H80.4663ZM81.2863 57.36C81.173 57.94 80.923 58.3767 80.5363 58.67C80.1497 58.9633 79.663 59.11 79.0763 59.11C78.663 59.11 78.303 59.0433 77.9963 58.91C77.6963 58.7767 77.443 58.59 77.2363 58.35C77.0297 58.11 76.873 57.8233 76.7663 57.49C76.6663 57.1567 76.6097 56.7933 76.5963 56.4C76.5963 56.0067 76.6563 55.6467 76.7763 55.32C76.8963 54.9933 77.063 54.71 77.2763 54.47C77.4963 54.23 77.753 54.0433 78.0463 53.91C78.3463 53.7767 78.673 53.71 79.0263 53.71C79.4863 53.71 79.8663 53.8067 80.1663 54C80.473 54.1867 80.7163 54.4267 80.8963 54.72C81.083 55.0133 81.2097 55.3333 81.2763 55.68C81.3497 56.0267 81.3797 56.3567 81.3663 56.67H77.4963C77.4897 56.8967 77.5163 57.1133 77.5763 57.32C77.6363 57.52 77.733 57.7 77.8663 57.86C77.9997 58.0133 78.1697 58.1367 78.3763 58.23C78.583 58.3233 78.8263 58.37 79.1063 58.37C79.4663 58.37 79.7597 58.2867 79.9863 58.12C80.2197 57.9533 80.373 57.7 80.4463 57.36H81.2863ZM82.7674 57.37C82.7741 57.5567 82.8174 57.7167 82.8974 57.85C82.9774 57.9767 83.0808 58.08 83.2074 58.16C83.3408 58.2333 83.4874 58.2867 83.6474 58.32C83.8141 58.3533 83.9841 58.37 84.1574 58.37C84.2908 58.37 84.4308 58.36 84.5774 58.34C84.7241 58.32 84.8574 58.2833 84.9774 58.23C85.1041 58.1767 85.2074 58.1 85.2874 58C85.3674 57.8933 85.4074 57.76 85.4074 57.6C85.4074 57.38 85.3241 57.2133 85.1574 57.1C84.9908 56.9867 84.7808 56.8967 84.5274 56.83C84.2808 56.7567 84.0108 56.6933 83.7174 56.64C83.4241 56.58 83.1508 56.5 82.8974 56.4C82.6508 56.2933 82.4441 56.1467 82.2774 55.96C82.1108 55.7733 82.0274 55.5133 82.0274 55.18C82.0274 54.92 82.0841 54.6967 82.1974 54.51C82.3174 54.3233 82.4674 54.1733 82.6474 54.06C82.8341 53.94 83.0408 53.8533 83.2674 53.8C83.5008 53.74 83.7308 53.71 83.9574 53.71C84.2508 53.71 84.5208 53.7367 84.7674 53.79C85.0141 53.8367 85.2308 53.9233 85.4174 54.05C85.6108 54.17 85.7641 54.3367 85.8774 54.55C85.9908 54.7567 86.0574 55.0167 86.0774 55.33H85.2274C85.2141 55.1633 85.1708 55.0267 85.0974 54.92C85.0241 54.8067 84.9308 54.7167 84.8174 54.65C84.7041 54.5833 84.5774 54.5367 84.4374 54.51C84.3041 54.4767 84.1674 54.46 84.0274 54.46C83.9008 54.46 83.7708 54.47 83.6374 54.49C83.5108 54.51 83.3941 54.5467 83.2874 54.6C83.1808 54.6467 83.0941 54.7133 83.0274 54.8C82.9608 54.88 82.9274 54.9867 82.9274 55.12C82.9274 55.2667 82.9774 55.39 83.0774 55.49C83.1841 55.5833 83.3174 55.6633 83.4774 55.73C83.6374 55.79 83.8174 55.8433 84.0174 55.89C84.2174 55.93 84.4174 55.9733 84.6174 56.02C84.8308 56.0667 85.0374 56.1233 85.2374 56.19C85.4441 56.2567 85.6241 56.3467 85.7774 56.46C85.9374 56.5667 86.0641 56.7033 86.1574 56.87C86.2574 57.0367 86.3074 57.2433 86.3074 57.49C86.3074 57.8033 86.2408 58.0633 86.1074 58.27C85.9808 58.4767 85.8108 58.6433 85.5974 58.77C85.3908 58.8967 85.1541 58.9833 84.8874 59.03C84.6274 59.0833 84.3674 59.11 84.1074 59.11C83.8208 59.11 83.5474 59.08 83.2874 59.02C83.0274 58.96 82.7974 58.8633 82.5974 58.73C82.3974 58.59 82.2374 58.41 82.1174 58.19C81.9974 57.9633 81.9308 57.69 81.9174 57.37H82.7674Z" fill="black"/>
<path d="M251.508 299.08V302H250.558V299.08L247.798 294.86H248.928L251.068 298.26L253.158 294.86H254.238L251.508 299.08ZM257.379 298.92C257.366 298.72 257.319 298.53 257.239 298.35C257.166 298.17 257.063 298.017 256.929 297.89C256.803 297.757 256.649 297.653 256.469 297.58C256.296 297.5 256.103 297.46 255.889 297.46C255.669 297.46 255.469 297.5 255.289 297.58C255.116 297.653 254.966 297.757 254.839 297.89C254.713 298.023 254.613 298.18 254.539 298.36C254.466 298.533 254.423 298.72 254.409 298.92H257.379ZM258.199 300.36C258.086 300.94 257.836 301.377 257.449 301.67C257.063 301.963 256.576 302.11 255.989 302.11C255.576 302.11 255.216 302.043 254.909 301.91C254.609 301.777 254.356 301.59 254.149 301.35C253.943 301.11 253.786 300.823 253.679 300.49C253.579 300.157 253.523 299.793 253.509 299.4C253.509 299.007 253.569 298.647 253.689 298.32C253.809 297.993 253.976 297.71 254.189 297.47C254.409 297.23 254.666 297.043 254.959 296.91C255.259 296.777 255.586 296.71 255.939 296.71C256.399 296.71 256.779 296.807 257.079 297C257.386 297.187 257.629 297.427 257.809 297.72C257.996 298.013 258.123 298.333 258.189 298.68C258.263 299.027 258.293 299.357 258.279 299.67H254.409C254.403 299.897 254.429 300.113 254.489 300.32C254.549 300.52 254.646 300.7 254.779 300.86C254.913 301.013 255.083 301.137 255.289 301.23C255.496 301.323 255.739 301.37 256.019 301.37C256.379 301.37 256.673 301.287 256.899 301.12C257.133 300.953 257.286 300.7 257.359 300.36H258.199ZM263.741 301.98C263.594 302.067 263.391 302.11 263.131 302.11C262.911 302.11 262.734 302.05 262.601 301.93C262.474 301.803 262.411 301.6 262.411 301.32C262.177 301.6 261.904 301.803 261.591 301.93C261.284 302.05 260.951 302.11 260.591 302.11C260.357 302.11 260.134 302.083 259.921 302.03C259.714 301.977 259.534 301.893 259.381 301.78C259.227 301.667 259.104 301.52 259.011 301.34C258.924 301.153 258.881 300.93 258.881 300.67C258.881 300.377 258.931 300.137 259.031 299.95C259.131 299.763 259.261 299.613 259.421 299.5C259.587 299.38 259.774 299.29 259.981 299.23C260.194 299.17 260.411 299.12 260.631 299.08C260.864 299.033 261.084 299 261.291 298.98C261.504 298.953 261.691 298.92 261.851 298.88C262.011 298.833 262.137 298.77 262.231 298.69C262.324 298.603 262.371 298.48 262.371 298.32C262.371 298.133 262.334 297.983 262.261 297.87C262.194 297.757 262.104 297.67 261.991 297.61C261.884 297.55 261.761 297.51 261.621 297.49C261.487 297.47 261.354 297.46 261.221 297.46C260.861 297.46 260.561 297.53 260.321 297.67C260.081 297.803 259.951 298.06 259.931 298.44H259.081C259.094 298.12 259.161 297.85 259.281 297.63C259.401 297.41 259.561 297.233 259.761 297.1C259.961 296.96 260.187 296.86 260.441 296.8C260.701 296.74 260.977 296.71 261.271 296.71C261.504 296.71 261.734 296.727 261.961 296.76C262.194 296.793 262.404 296.863 262.591 296.97C262.777 297.07 262.927 297.213 263.041 297.4C263.154 297.587 263.211 297.83 263.211 298.13V300.79C263.211 300.99 263.221 301.137 263.241 301.23C263.267 301.323 263.347 301.37 263.481 301.37C263.554 301.37 263.641 301.353 263.741 301.32V301.98ZM262.361 299.33C262.254 299.41 262.114 299.47 261.941 299.51C261.767 299.543 261.584 299.573 261.391 299.6C261.204 299.62 261.014 299.647 260.821 299.68C260.627 299.707 260.454 299.753 260.301 299.82C260.147 299.887 260.021 299.983 259.921 300.11C259.827 300.23 259.781 300.397 259.781 300.61C259.781 300.75 259.807 300.87 259.861 300.97C259.921 301.063 259.994 301.14 260.081 301.2C260.174 301.26 260.281 301.303 260.401 301.33C260.521 301.357 260.647 301.37 260.781 301.37C261.061 301.37 261.301 301.333 261.501 301.26C261.701 301.18 261.864 301.083 261.991 300.97C262.117 300.85 262.211 300.723 262.271 300.59C262.331 300.45 262.361 300.32 262.361 300.2V299.33ZM264.502 296.83H265.302V297.92H265.322C265.528 297.5 265.782 297.19 266.082 296.99C266.382 296.79 266.762 296.697 267.222 296.71V297.61C266.882 297.61 266.592 297.657 266.352 297.75C266.112 297.843 265.918 297.98 265.772 298.16C265.625 298.34 265.518 298.56 265.452 298.82C265.385 299.073 265.352 299.367 265.352 299.7V302H264.502V296.83Z" fill="#757575"/>
<path d="M18.0417 278.51C18.0417 278.777 18.0483 279.077 18.0617 279.41C18.0817 279.737 18.135 280.047 18.2217 280.34C18.315 280.627 18.4617 280.87 18.6617 281.07C18.8617 281.27 19.1417 281.37 19.5017 281.37C19.8617 281.37 20.1417 281.27 20.3417 281.07C20.5417 280.87 20.685 280.627 20.7717 280.34C20.865 280.047 20.9183 279.737 20.9317 279.41C20.9517 279.077 20.9617 278.777 20.9617 278.51C20.9617 278.337 20.9583 278.147 20.9517 277.94C20.9517 277.727 20.935 277.517 20.9017 277.31C20.875 277.097 20.8317 276.89 20.7717 276.69C20.7183 276.49 20.635 276.317 20.5217 276.17C20.415 276.017 20.2783 275.893 20.1117 275.8C19.945 275.707 19.7417 275.66 19.5017 275.66C19.2617 275.66 19.0583 275.707 18.8917 275.8C18.725 275.893 18.585 276.017 18.4717 276.17C18.365 276.317 18.2817 276.49 18.2217 276.69C18.1683 276.89 18.125 277.097 18.0917 277.31C18.065 277.517 18.0483 277.727 18.0417 277.94C18.0417 278.147 18.0417 278.337 18.0417 278.51ZM17.1417 278.52C17.1417 278.26 17.1483 277.99 17.1617 277.71C17.175 277.43 17.2083 277.157 17.2617 276.89C17.315 276.623 17.3917 276.37 17.4917 276.13C17.5917 275.89 17.7283 275.68 17.9017 275.5C18.075 275.32 18.2917 275.177 18.5517 275.07C18.8183 274.963 19.135 274.91 19.5017 274.91C19.8683 274.91 20.1817 274.963 20.4417 275.07C20.7083 275.177 20.9283 275.32 21.1017 275.5C21.275 275.68 21.4117 275.89 21.5117 276.13C21.6117 276.37 21.6883 276.623 21.7417 276.89C21.795 277.157 21.8283 277.43 21.8417 277.71C21.855 277.99 21.8617 278.26 21.8617 278.52C21.8617 278.78 21.855 279.05 21.8417 279.33C21.8283 279.61 21.795 279.883 21.7417 280.15C21.6883 280.417 21.6117 280.67 21.5117 280.91C21.4117 281.143 21.275 281.35 21.1017 281.53C20.9283 281.71 20.7117 281.853 20.4517 281.96C20.1917 282.06 19.875 282.11 19.5017 282.11C19.135 282.11 18.8183 282.06 18.5517 281.96C18.2917 281.853 18.075 281.71 17.9017 281.53C17.7283 281.35 17.5917 281.143 17.4917 280.91C17.3917 280.67 17.315 280.417 17.2617 280.15C17.2083 279.883 17.175 279.61 17.1617 279.33C17.1483 279.05 17.1417 278.78 17.1417 278.52Z" fill="#757575"/>
<path d="M137.062 280.29C137.095 280.637 137.235 280.903 137.482 281.09C137.728 281.277 138.022 281.37 138.362 281.37C138.882 281.37 139.272 281.147 139.532 280.7C139.792 280.247 139.935 279.557 139.962 278.63L139.942 278.61C139.782 278.91 139.555 279.15 139.262 279.33C138.968 279.503 138.648 279.59 138.302 279.59C137.942 279.59 137.622 279.533 137.342 279.42C137.062 279.3 136.825 279.137 136.632 278.93C136.445 278.723 136.302 278.473 136.202 278.18C136.108 277.887 136.062 277.567 136.062 277.22C136.062 276.88 136.118 276.57 136.232 276.29C136.345 276.003 136.505 275.76 136.712 275.56C136.918 275.353 137.165 275.193 137.452 275.08C137.738 274.967 138.052 274.91 138.392 274.91C138.725 274.91 139.038 274.963 139.332 275.07C139.625 275.17 139.882 275.347 140.102 275.6C140.322 275.853 140.495 276.2 140.622 276.64C140.755 277.073 140.822 277.627 140.822 278.3C140.822 279.527 140.625 280.47 140.232 281.13C139.845 281.783 139.222 282.11 138.362 282.11C137.768 282.11 137.275 281.96 136.882 281.66C136.488 281.36 136.265 280.903 136.212 280.29H137.062ZM139.812 277.28C139.812 277.06 139.778 276.853 139.712 276.66C139.652 276.467 139.558 276.297 139.432 276.15C139.312 275.997 139.162 275.877 138.982 275.79C138.802 275.703 138.592 275.66 138.352 275.66C138.098 275.66 137.882 275.707 137.702 275.8C137.528 275.893 137.385 276.02 137.272 276.18C137.165 276.333 137.085 276.51 137.032 276.71C136.985 276.91 136.962 277.12 136.962 277.34C136.962 277.533 136.995 277.72 137.062 277.9C137.135 278.08 137.232 278.24 137.352 278.38C137.478 278.52 137.625 278.633 137.792 278.72C137.965 278.8 138.155 278.84 138.362 278.84C138.582 278.84 138.782 278.8 138.962 278.72C139.142 278.633 139.295 278.52 139.422 278.38C139.548 278.233 139.645 278.067 139.712 277.88C139.778 277.687 139.812 277.487 139.812 277.28Z" fill="#757575"/>
<path d="M255.503 282H254.653V276.92H252.813V276.24C253.053 276.24 253.287 276.223 253.513 276.19C253.74 276.15 253.943 276.08 254.123 275.98C254.31 275.88 254.467 275.743 254.593 275.57C254.72 275.397 254.807 275.177 254.853 274.91H255.503V282ZM262.59 275.76C262.23 276.113 261.893 276.533 261.58 277.02C261.267 277.507 260.987 278.027 260.74 278.58C260.5 279.133 260.303 279.703 260.15 280.29C259.997 280.877 259.903 281.447 259.87 282H258.92C258.96 281.4 259.057 280.817 259.21 280.25C259.37 279.677 259.573 279.13 259.82 278.61C260.067 278.083 260.35 277.587 260.67 277.12C260.997 276.653 261.347 276.223 261.72 275.83H258V275.03H262.59V275.76Z" fill="#757575"/>
<path d="M371.383 277.42C371.363 277.06 371.4 276.727 371.493 276.42C371.587 276.113 371.73 275.85 371.923 275.63C372.123 275.403 372.37 275.227 372.663 275.1C372.957 274.973 373.29 274.91 373.663 274.91C373.97 274.91 374.257 274.957 374.523 275.05C374.797 275.137 375.033 275.267 375.233 275.44C375.433 275.607 375.59 275.817 375.703 276.07C375.823 276.323 375.883 276.617 375.883 276.95C375.883 277.263 375.833 277.54 375.733 277.78C375.64 278.02 375.513 278.237 375.353 278.43C375.193 278.617 375.01 278.787 374.803 278.94C374.597 279.093 374.383 279.24 374.163 279.38C373.943 279.513 373.723 279.647 373.503 279.78C373.283 279.907 373.08 280.043 372.893 280.19C372.713 280.337 372.557 280.497 372.423 280.67C372.297 280.837 372.213 281.03 372.173 281.25H375.813V282H371.183C371.217 281.58 371.29 281.223 371.403 280.93C371.523 280.63 371.673 280.37 371.853 280.15C372.033 279.93 372.237 279.737 372.463 279.57C372.69 279.403 372.927 279.247 373.173 279.1C373.473 278.913 373.737 278.743 373.963 278.59C374.19 278.43 374.377 278.27 374.523 278.11C374.677 277.95 374.79 277.777 374.863 277.59C374.943 277.403 374.983 277.187 374.983 276.94C374.983 276.747 374.947 276.573 374.873 276.42C374.8 276.26 374.7 276.123 374.573 276.01C374.453 275.897 374.31 275.81 374.143 275.75C373.977 275.69 373.8 275.66 373.613 275.66C373.367 275.66 373.153 275.713 372.973 275.82C372.8 275.92 372.657 276.053 372.543 276.22C372.43 276.387 372.347 276.577 372.293 276.79C372.247 276.997 372.227 277.207 372.233 277.42H371.383ZM376.94 277.42C376.92 277.06 376.957 276.727 377.05 276.42C377.143 276.113 377.287 275.85 377.48 275.63C377.68 275.403 377.927 275.227 378.22 275.1C378.513 274.973 378.847 274.91 379.22 274.91C379.527 274.91 379.813 274.957 380.08 275.05C380.353 275.137 380.59 275.267 380.79 275.44C380.99 275.607 381.147 275.817 381.26 276.07C381.38 276.323 381.44 276.617 381.44 276.95C381.44 277.263 381.39 277.54 381.29 277.78C381.197 278.02 381.07 278.237 380.91 278.43C380.75 278.617 380.567 278.787 380.36 278.94C380.153 279.093 379.94 279.24 379.72 279.38C379.5 279.513 379.28 279.647 379.06 279.78C378.84 279.907 378.637 280.043 378.45 280.19C378.27 280.337 378.113 280.497 377.98 280.67C377.853 280.837 377.77 281.03 377.73 281.25H381.37V282H376.74C376.773 281.58 376.847 281.223 376.96 280.93C377.08 280.63 377.23 280.37 377.41 280.15C377.59 279.93 377.793 279.737 378.02 279.57C378.247 279.403 378.483 279.247 378.73 279.1C379.03 278.913 379.293 278.743 379.52 278.59C379.747 278.43 379.933 278.27 380.08 278.11C380.233 277.95 380.347 277.777 380.42 277.59C380.5 277.403 380.54 277.187 380.54 276.94C380.54 276.747 380.503 276.573 380.43 276.42C380.357 276.26 380.257 276.123 380.13 276.01C380.01 275.897 379.867 275.81 379.7 275.75C379.533 275.69 379.357 275.66 379.17 275.66C378.923 275.66 378.71 275.713 378.53 275.82C378.357 275.92 378.213 276.053 378.1 276.22C377.987 276.387 377.903 276.577 377.85 276.79C377.803 276.997 377.783 277.207 377.79 277.42H376.94Z" fill="#757575"/>
<path d="M492.123 277.95C492.157 277.957 492.187 277.96 492.213 277.96C492.247 277.96 492.28 277.96 492.313 277.96H492.493C492.673 277.96 492.843 277.937 493.003 277.89C493.17 277.837 493.313 277.763 493.433 277.67C493.56 277.57 493.66 277.447 493.733 277.3C493.807 277.153 493.843 276.987 493.843 276.8C493.843 276.42 493.723 276.137 493.483 275.95C493.243 275.757 492.943 275.66 492.583 275.66C492.357 275.66 492.157 275.703 491.983 275.79C491.817 275.87 491.677 275.98 491.563 276.12C491.457 276.26 491.377 276.423 491.323 276.61C491.27 276.797 491.243 276.993 491.243 277.2H490.393C490.407 276.86 490.46 276.55 490.553 276.27C490.653 275.99 490.793 275.75 490.973 275.55C491.153 275.35 491.377 275.193 491.643 275.08C491.917 274.967 492.23 274.91 492.583 274.91C492.89 274.91 493.173 274.95 493.433 275.03C493.7 275.103 493.93 275.217 494.123 275.37C494.317 275.523 494.467 275.72 494.573 275.96C494.687 276.2 494.743 276.483 494.743 276.81C494.743 277.13 494.65 277.413 494.463 277.66C494.277 277.907 494.043 278.093 493.763 278.22V278.24C494.197 278.333 494.517 278.537 494.723 278.85C494.937 279.163 495.043 279.533 495.043 279.96C495.043 280.313 494.977 280.627 494.843 280.9C494.717 281.167 494.543 281.39 494.323 281.57C494.103 281.75 493.843 281.887 493.543 281.98C493.25 282.067 492.937 282.11 492.603 282.11C492.243 282.11 491.917 282.06 491.623 281.96C491.33 281.86 491.08 281.713 490.873 281.52C490.667 281.32 490.507 281.077 490.393 280.79C490.287 280.503 490.237 280.177 490.243 279.81H491.093C491.107 280.27 491.24 280.647 491.493 280.94C491.747 281.227 492.117 281.37 492.603 281.37C492.81 281.37 493.007 281.34 493.193 281.28C493.38 281.213 493.543 281.123 493.683 281.01C493.823 280.89 493.933 280.747 494.013 280.58C494.1 280.407 494.143 280.213 494.143 280C494.143 279.78 494.103 279.587 494.023 279.42C493.943 279.247 493.837 279.103 493.703 278.99C493.57 278.87 493.41 278.783 493.223 278.73C493.043 278.67 492.847 278.64 492.633 278.64C492.453 278.64 492.283 278.65 492.123 278.67V277.95ZM496.82 278.51C496.82 278.777 496.827 279.077 496.84 279.41C496.86 279.737 496.913 280.047 497 280.34C497.093 280.627 497.24 280.87 497.44 281.07C497.64 281.27 497.92 281.37 498.28 281.37C498.64 281.37 498.92 281.27 499.12 281.07C499.32 280.87 499.463 280.627 499.55 280.34C499.643 280.047 499.697 279.737 499.71 279.41C499.73 279.077 499.74 278.777 499.74 278.51C499.74 278.337 499.737 278.147 499.73 277.94C499.73 277.727 499.713 277.517 499.68 277.31C499.653 277.097 499.61 276.89 499.55 276.69C499.497 276.49 499.413 276.317 499.3 276.17C499.193 276.017 499.057 275.893 498.89 275.8C498.723 275.707 498.52 275.66 498.28 275.66C498.04 275.66 497.837 275.707 497.67 275.8C497.503 275.893 497.363 276.017 497.25 276.17C497.143 276.317 497.06 276.49 497 276.69C496.947 276.89 496.903 277.097 496.87 277.31C496.843 277.517 496.827 277.727 496.82 277.94C496.82 278.147 496.82 278.337 496.82 278.51ZM495.92 278.52C495.92 278.26 495.927 277.99 495.94 277.71C495.953 277.43 495.987 277.157 496.04 276.89C496.093 276.623 496.17 276.37 496.27 276.13C496.37 275.89 496.507 275.68 496.68 275.5C496.853 275.32 497.07 275.177 497.33 275.07C497.597 274.963 497.913 274.91 498.28 274.91C498.647 274.91 498.96 274.963 499.22 275.07C499.487 275.177 499.707 275.32 499.88 275.5C500.053 275.68 500.19 275.89 500.29 276.13C500.39 276.37 500.467 276.623 500.52 276.89C500.573 277.157 500.607 277.43 500.62 277.71C500.633 277.99 500.64 278.26 500.64 278.52C500.64 278.78 500.633 279.05 500.62 279.33C500.607 279.61 500.573 279.883 500.52 280.15C500.467 280.417 500.39 280.67 500.29 280.91C500.19 281.143 500.053 281.35 499.88 281.53C499.707 281.71 499.49 281.853 499.23 281.96C498.97 282.06 498.653 282.11 498.28 282.11C497.913 282.11 497.597 282.06 497.33 281.96C497.07 281.853 496.853 281.71 496.68 281.53C496.507 281.35 496.37 281.143 496.27 280.91C496.17 280.67 496.093 280.417 496.04 280.15C495.987 279.883 495.953 279.61 495.94 279.33C495.927 279.05 495.92 278.78 495.92 278.52Z" fill="#757575"/>
<path d="M502.755 44.76C502.395 45.1133 502.058 45.5333 501.745 46.02C501.432 46.5067 501.152 47.0267 500.905 47.58C500.665 48.1333 500.468 48.7033 500.315 49.29C500.162 49.8767 500.068 50.4467 500.035 51H499.085C499.125 50.4 499.222 49.8167 499.375 49.25C499.535 48.6767 499.738 48.13 499.985 47.61C500.232 47.0833 500.515 46.5867 500.835 46.12C501.162 45.6533 501.512 45.2233 501.885 44.83H498.165V44.03H502.755V44.76ZM504.542 47.51C504.542 47.7767 504.548 48.0767 504.562 48.41C504.582 48.7367 504.635 49.0467 504.722 49.34C504.815 49.6267 504.962 49.87 505.162 50.07C505.362 50.27 505.642 50.37 506.002 50.37C506.362 50.37 506.642 50.27 506.842 50.07C507.042 49.87 507.185 49.6267 507.272 49.34C507.365 49.0467 507.418 48.7367 507.432 48.41C507.452 48.0767 507.462 47.7767 507.462 47.51C507.462 47.3367 507.458 47.1467 507.452 46.94C507.452 46.7267 507.435 46.5167 507.402 46.31C507.375 46.0967 507.332 45.89 507.272 45.69C507.218 45.49 507.135 45.3167 507.022 45.17C506.915 45.0167 506.778 44.8933 506.612 44.8C506.445 44.7067 506.242 44.66 506.002 44.66C505.762 44.66 505.558 44.7067 505.392 44.8C505.225 44.8933 505.085 45.0167 504.972 45.17C504.865 45.3167 504.782 45.49 504.722 45.69C504.668 45.89 504.625 46.0967 504.592 46.31C504.565 46.5167 504.548 46.7267 504.542 46.94C504.542 47.1467 504.542 47.3367 504.542 47.51ZM503.642 47.52C503.642 47.26 503.648 46.99 503.662 46.71C503.675 46.43 503.708 46.1567 503.762 45.89C503.815 45.6233 503.892 45.37 503.992 45.13C504.092 44.89 504.228 44.68 504.402 44.5C504.575 44.32 504.792 44.1767 505.052 44.07C505.318 43.9633 505.635 43.91 506.002 43.91C506.368 43.91 506.682 43.9633 506.942 44.07C507.208 44.1767 507.428 44.32 507.602 44.5C507.775 44.68 507.912 44.89 508.012 45.13C508.112 45.37 508.188 45.6233 508.242 45.89C508.295 46.1567 508.328 46.43 508.342 46.71C508.355 46.99 508.362 47.26 508.362 47.52C508.362 47.78 508.355 48.05 508.342 48.33C508.328 48.61 508.295 48.8833 508.242 49.15C508.188 49.4167 508.112 49.67 508.012 49.91C507.912 50.1433 507.775 50.35 507.602 50.53C507.428 50.71 507.212 50.8533 506.952 50.96C506.692 51.06 506.375 51.11 506.002 51.11C505.635 51.11 505.318 51.06 505.052 50.96C504.792 50.8533 504.575 50.71 504.402 50.53C504.228 50.35 504.092 50.1433 503.992 49.91C503.892 49.67 503.815 49.4167 503.762 49.15C503.708 48.8833 503.675 48.61 503.662 48.33C503.648 48.05 503.642 47.78 503.642 47.52ZM510.098 47.51C510.098 47.7767 510.105 48.0767 510.118 48.41C510.138 48.7367 510.192 49.0467 510.278 49.34C510.372 49.6267 510.518 49.87 510.718 50.07C510.918 50.27 511.198 50.37 511.558 50.37C511.918 50.37 512.198 50.27 512.398 50.07C512.598 49.87 512.742 49.6267 512.828 49.34C512.922 49.0467 512.975 48.7367 512.988 48.41C513.008 48.0767 513.018 47.7767 513.018 47.51C513.018 47.3367 513.015 47.1467 513.008 46.94C513.008 46.7267 512.992 46.5167 512.958 46.31C512.932 46.0967 512.888 45.89 512.828 45.69C512.775 45.49 512.692 45.3167 512.578 45.17C512.472 45.0167 512.335 44.8933 512.168 44.8C512.002 44.7067 511.798 44.66 511.558 44.66C511.318 44.66 511.115 44.7067 510.948 44.8C510.782 44.8933 510.642 45.0167 510.528 45.17C510.422 45.3167 510.338 45.49 510.278 45.69C510.225 45.89 510.182 46.0967 510.148 46.31C510.122 46.5167 510.105 46.7267 510.098 46.94C510.098 47.1467 510.098 47.3367 510.098 47.51ZM509.198 47.52C509.198 47.26 509.205 46.99 509.218 46.71C509.232 46.43 509.265 46.1567 509.318 45.89C509.372 45.6233 509.448 45.37 509.548 45.13C509.648 44.89 509.785 44.68 509.958 44.5C510.132 44.32 510.348 44.1767 510.608 44.07C510.875 43.9633 511.192 43.91 511.558 43.91C511.925 43.91 512.238 43.9633 512.498 44.07C512.765 44.1767 512.985 44.32 513.158 44.5C513.332 44.68 513.468 44.89 513.568 45.13C513.668 45.37 513.745 45.6233 513.798 45.89C513.852 46.1567 513.885 46.43 513.898 46.71C513.912 46.99 513.918 47.26 513.918 47.52C513.918 47.78 513.912 48.05 513.898 48.33C513.885 48.61 513.852 48.8833 513.798 49.15C513.745 49.4167 513.668 49.67 513.568 49.91C513.468 50.1433 513.332 50.35 513.158 50.53C512.985 50.71 512.768 50.8533 512.508 50.96C512.248 51.06 511.932 51.11 511.558 51.11C511.192 51.11 510.875 51.06 510.608 50.96C510.348 50.8533 510.132 50.71 509.958 50.53C509.785 50.35 509.648 50.1433 509.548 49.91C509.448 49.67 509.372 49.4167 509.318 49.15C509.265 48.8833 509.232 48.61 509.218 48.33C509.205 48.05 509.198 47.78 509.198 47.52Z" fill="#757575"/>
<path d="M502.365 96.78H499.505L499.125 98.82L499.145 98.84C499.298 98.6667 499.495 98.54 499.735 98.46C499.982 98.3733 500.225 98.33 500.465 98.33C500.778 98.33 501.075 98.38 501.355 98.48C501.635 98.58 501.878 98.7333 502.085 98.94C502.292 99.14 502.455 99.3933 502.575 99.7C502.695 100 502.755 100.353 502.755 100.76C502.755 101.06 502.702 101.353 502.595 101.64C502.495 101.92 502.342 102.17 502.135 102.39C501.928 102.61 501.668 102.787 501.355 102.92C501.048 103.047 500.688 103.11 500.275 103.11C499.968 103.11 499.678 103.067 499.405 102.98C499.138 102.887 498.902 102.757 498.695 102.59C498.488 102.417 498.325 102.203 498.205 101.95C498.085 101.697 498.022 101.41 498.015 101.09H498.865C498.878 101.27 498.922 101.44 498.995 101.6C499.075 101.753 499.178 101.89 499.305 102.01C499.438 102.123 499.592 102.213 499.765 102.28C499.945 102.34 500.142 102.37 500.355 102.37C500.555 102.37 500.745 102.337 500.925 102.27C501.112 102.197 501.272 102.09 501.405 101.95C501.545 101.81 501.655 101.637 501.735 101.43C501.815 101.217 501.855 100.97 501.855 100.69C501.855 100.457 501.815 100.243 501.735 100.05C501.662 99.85 501.555 99.68 501.415 99.54C501.275 99.3933 501.105 99.28 500.905 99.2C500.712 99.12 500.495 99.08 500.255 99.08C499.975 99.08 499.725 99.1433 499.505 99.27C499.292 99.39 499.102 99.55 498.935 99.75L498.205 99.71L498.865 96.03H502.365V96.78ZM507.922 96.78H505.062L504.682 98.82L504.702 98.84C504.855 98.6667 505.052 98.54 505.292 98.46C505.538 98.3733 505.782 98.33 506.022 98.33C506.335 98.33 506.632 98.38 506.912 98.48C507.192 98.58 507.435 98.7333 507.642 98.94C507.848 99.14 508.012 99.3933 508.132 99.7C508.252 100 508.312 100.353 508.312 100.76C508.312 101.06 508.258 101.353 508.152 101.64C508.052 101.92 507.898 102.17 507.692 102.39C507.485 102.61 507.225 102.787 506.912 102.92C506.605 103.047 506.245 103.11 505.832 103.11C505.525 103.11 505.235 103.067 504.962 102.98C504.695 102.887 504.458 102.757 504.252 102.59C504.045 102.417 503.882 102.203 503.762 101.95C503.642 101.697 503.578 101.41 503.572 101.09H504.422C504.435 101.27 504.478 101.44 504.552 101.6C504.632 101.753 504.735 101.89 504.862 102.01C504.995 102.123 505.148 102.213 505.322 102.28C505.502 102.34 505.698 102.37 505.912 102.37C506.112 102.37 506.302 102.337 506.482 102.27C506.668 102.197 506.828 102.09 506.962 101.95C507.102 101.81 507.212 101.637 507.292 101.43C507.372 101.217 507.412 100.97 507.412 100.69C507.412 100.457 507.372 100.243 507.292 100.05C507.218 99.85 507.112 99.68 506.972 99.54C506.832 99.3933 506.662 99.28 506.462 99.2C506.268 99.12 506.052 99.08 505.812 99.08C505.532 99.08 505.282 99.1433 505.062 99.27C504.848 99.39 504.658 99.55 504.492 99.75L503.762 99.71L504.422 96.03H507.922V96.78ZM510.098 99.51C510.098 99.7767 510.105 100.077 510.118 100.41C510.138 100.737 510.192 101.047 510.278 101.34C510.372 101.627 510.518 101.87 510.718 102.07C510.918 102.27 511.198 102.37 511.558 102.37C511.918 102.37 512.198 102.27 512.398 102.07C512.598 101.87 512.742 101.627 512.828 101.34C512.922 101.047 512.975 100.737 512.988 100.41C513.008 100.077 513.018 99.7767 513.018 99.51C513.018 99.3367 513.015 99.1467 513.008 98.94C513.008 98.7267 512.992 98.5167 512.958 98.31C512.932 98.0967 512.888 97.89 512.828 97.69C512.775 97.49 512.692 97.3167 512.578 97.17C512.472 97.0167 512.335 96.8933 512.168 96.8C512.002 96.7067 511.798 96.66 511.558 96.66C511.318 96.66 511.115 96.7067 510.948 96.8C510.782 96.8933 510.642 97.0167 510.528 97.17C510.422 97.3167 510.338 97.49 510.278 97.69C510.225 97.89 510.182 98.0967 510.148 98.31C510.122 98.5167 510.105 98.7267 510.098 98.94C510.098 99.1467 510.098 99.3367 510.098 99.51ZM509.198 99.52C509.198 99.26 509.205 98.99 509.218 98.71C509.232 98.43 509.265 98.1567 509.318 97.89C509.372 97.6233 509.448 97.37 509.548 97.13C509.648 96.89 509.785 96.68 509.958 96.5C510.132 96.32 510.348 96.1767 510.608 96.07C510.875 95.9633 511.192 95.91 511.558 95.91C511.925 95.91 512.238 95.9633 512.498 96.07C512.765 96.1767 512.985 96.32 513.158 96.5C513.332 96.68 513.468 96.89 513.568 97.13C513.668 97.37 513.745 97.6233 513.798 97.89C513.852 98.1567 513.885 98.43 513.898 98.71C513.912 98.99 513.918 99.26 513.918 99.52C513.918 99.78 513.912 100.05 513.898 100.33C513.885 100.61 513.852 100.883 513.798 101.15C513.745 101.417 513.668 101.67 513.568 101.91C513.468 102.143 513.332 102.35 513.158 102.53C512.985 102.71 512.768 102.853 512.508 102.96C512.248 103.06 511.932 103.11 511.558 103.11C511.192 103.11 510.875 103.06 510.608 102.96C510.348 102.853 510.132 102.71 509.958 102.53C509.785 102.35 509.648 102.143 509.548 101.91C509.448 101.67 509.372 101.417 509.318 101.15C509.265 100.883 509.232 100.61 509.218 100.33C509.205 100.05 509.198 99.78 509.198 99.52Z" fill="#757575"/>
<path d="M501.055 153.59V150.12H501.035L498.675 153.59H501.055ZM501.855 153.59H502.815V154.34H501.855V156H501.055V154.34H497.945V153.52L501.175 148.91H501.855V153.59ZM504.542 152.51C504.542 152.777 504.548 153.077 504.562 153.41C504.582 153.737 504.635 154.047 504.722 154.34C504.815 154.627 504.962 154.87 505.162 155.07C505.362 155.27 505.642 155.37 506.002 155.37C506.362 155.37 506.642 155.27 506.842 155.07C507.042 154.87 507.185 154.627 507.272 154.34C507.365 154.047 507.418 153.737 507.432 153.41C507.452 153.077 507.462 152.777 507.462 152.51C507.462 152.337 507.458 152.147 507.452 151.94C507.452 151.727 507.435 151.517 507.402 151.31C507.375 151.097 507.332 150.89 507.272 150.69C507.218 150.49 507.135 150.317 507.022 150.17C506.915 150.017 506.778 149.893 506.612 149.8C506.445 149.707 506.242 149.66 506.002 149.66C505.762 149.66 505.558 149.707 505.392 149.8C505.225 149.893 505.085 150.017 504.972 150.17C504.865 150.317 504.782 150.49 504.722 150.69C504.668 150.89 504.625 151.097 504.592 151.31C504.565 151.517 504.548 151.727 504.542 151.94C504.542 152.147 504.542 152.337 504.542 152.51ZM503.642 152.52C503.642 152.26 503.648 151.99 503.662 151.71C503.675 151.43 503.708 151.157 503.762 150.89C503.815 150.623 503.892 150.37 503.992 150.13C504.092 149.89 504.228 149.68 504.402 149.5C504.575 149.32 504.792 149.177 505.052 149.07C505.318 148.963 505.635 148.91 506.002 148.91C506.368 148.91 506.682 148.963 506.942 149.07C507.208 149.177 507.428 149.32 507.602 149.5C507.775 149.68 507.912 149.89 508.012 150.13C508.112 150.37 508.188 150.623 508.242 150.89C508.295 151.157 508.328 151.43 508.342 151.71C508.355 151.99 508.362 152.26 508.362 152.52C508.362 152.78 508.355 153.05 508.342 153.33C508.328 153.61 508.295 153.883 508.242 154.15C508.188 154.417 508.112 154.67 508.012 154.91C507.912 155.143 507.775 155.35 507.602 155.53C507.428 155.71 507.212 155.853 506.952 155.96C506.692 156.06 506.375 156.11 506.002 156.11C505.635 156.11 505.318 156.06 505.052 155.96C504.792 155.853 504.575 155.71 504.402 155.53C504.228 155.35 504.092 155.143 503.992 154.91C503.892 154.67 503.815 154.417 503.762 154.15C503.708 153.883 503.675 153.61 503.662 153.33C503.648 153.05 503.642 152.78 503.642 152.52ZM510.098 152.51C510.098 152.777 510.105 153.077 510.118 153.41C510.138 153.737 510.192 154.047 510.278 154.34C510.372 154.627 510.518 154.87 510.718 155.07C510.918 155.27 511.198 155.37 511.558 155.37C511.918 155.37 512.198 155.27 512.398 155.07C512.598 154.87 512.742 154.627 512.828 154.34C512.922 154.047 512.975 153.737 512.988 153.41C513.008 153.077 513.018 152.777 513.018 152.51C513.018 152.337 513.015 152.147 513.008 151.94C513.008 151.727 512.992 151.517 512.958 151.31C512.932 151.097 512.888 150.89 512.828 150.69C512.775 150.49 512.692 150.317 512.578 150.17C512.472 150.017 512.335 149.893 512.168 149.8C512.002 149.707 511.798 149.66 511.558 149.66C511.318 149.66 511.115 149.707 510.948 149.8C510.782 149.893 510.642 150.017 510.528 150.17C510.422 150.317 510.338 150.49 510.278 150.69C510.225 150.89 510.182 151.097 510.148 151.31C510.122 151.517 510.105 151.727 510.098 151.94C510.098 152.147 510.098 152.337 510.098 152.51ZM509.198 152.52C509.198 152.26 509.205 151.99 509.218 151.71C509.232 151.43 509.265 151.157 509.318 150.89C509.372 150.623 509.448 150.37 509.548 150.13C509.648 149.89 509.785 149.68 509.958 149.5C510.132 149.32 510.348 149.177 510.608 149.07C510.875 148.963 511.192 148.91 511.558 148.91C511.925 148.91 512.238 148.963 512.498 149.07C512.765 149.177 512.985 149.32 513.158 149.5C513.332 149.68 513.468 149.89 513.568 150.13C513.668 150.37 513.745 150.623 513.798 150.89C513.852 151.157 513.885 151.43 513.898 151.71C513.912 151.99 513.918 152.26 513.918 152.52C513.918 152.78 513.912 153.05 513.898 153.33C513.885 153.61 513.852 153.883 513.798 154.15C513.745 154.417 513.668 154.67 513.568 154.91C513.468 155.143 513.332 155.35 513.158 155.53C512.985 155.71 512.768 155.853 512.508 155.96C512.248 156.06 511.932 156.11 511.558 156.11C511.192 156.11 510.875 156.06 510.608 155.96C510.348 155.853 510.132 155.71 509.958 155.53C509.785 155.35 509.648 155.143 509.548 154.91C509.448 154.67 509.372 154.417 509.318 154.15C509.265 153.883 509.232 153.61 509.218 153.33C509.205 153.05 509.198 152.78 509.198 152.52Z" fill="#757575"/>
<path d="M501.225 261H500.375V255.92H498.535V255.24C498.775 255.24 499.008 255.223 499.235 255.19C499.462 255.15 499.665 255.08 499.845 254.98C500.032 254.88 500.188 254.743 500.315 254.57C500.442 254.397 500.528 254.177 500.575 253.91H501.225V261ZM504.542 257.51C504.542 257.777 504.548 258.077 504.562 258.41C504.582 258.737 504.635 259.047 504.722 259.34C504.815 259.627 504.962 259.87 505.162 260.07C505.362 260.27 505.642 260.37 506.002 260.37C506.362 260.37 506.642 260.27 506.842 260.07C507.042 259.87 507.185 259.627 507.272 259.34C507.365 259.047 507.418 258.737 507.432 258.41C507.452 258.077 507.462 257.777 507.462 257.51C507.462 257.337 507.458 257.147 507.452 256.94C507.452 256.727 507.435 256.517 507.402 256.31C507.375 256.097 507.332 255.89 507.272 255.69C507.218 255.49 507.135 255.317 507.022 255.17C506.915 255.017 506.778 254.893 506.612 254.8C506.445 254.707 506.242 254.66 506.002 254.66C505.762 254.66 505.558 254.707 505.392 254.8C505.225 254.893 505.085 255.017 504.972 255.17C504.865 255.317 504.782 255.49 504.722 255.69C504.668 255.89 504.625 256.097 504.592 256.31C504.565 256.517 504.548 256.727 504.542 256.94C504.542 257.147 504.542 257.337 504.542 257.51ZM503.642 257.52C503.642 257.26 503.648 256.99 503.662 256.71C503.675 256.43 503.708 256.157 503.762 255.89C503.815 255.623 503.892 255.37 503.992 255.13C504.092 254.89 504.228 254.68 504.402 254.5C504.575 254.32 504.792 254.177 505.052 254.07C505.318 253.963 505.635 253.91 506.002 253.91C506.368 253.91 506.682 253.963 506.942 254.07C507.208 254.177 507.428 254.32 507.602 254.5C507.775 254.68 507.912 254.89 508.012 255.13C508.112 255.37 508.188 255.623 508.242 255.89C508.295 256.157 508.328 256.43 508.342 256.71C508.355 256.99 508.362 257.26 508.362 257.52C508.362 257.78 508.355 258.05 508.342 258.33C508.328 258.61 508.295 258.883 508.242 259.15C508.188 259.417 508.112 259.67 508.012 259.91C507.912 260.143 507.775 260.35 507.602 260.53C507.428 260.71 507.212 260.853 506.952 260.96C506.692 261.06 506.375 261.11 506.002 261.11C505.635 261.11 505.318 261.06 505.052 260.96C504.792 260.853 504.575 260.71 504.402 260.53C504.228 260.35 504.092 260.143 503.992 259.91C503.892 259.67 503.815 259.417 503.762 259.15C503.708 258.883 503.675 258.61 503.662 258.33C503.648 258.05 503.642 257.78 503.642 257.52ZM510.098 257.51C510.098 257.777 510.105 258.077 510.118 258.41C510.138 258.737 510.192 259.047 510.278 259.34C510.372 259.627 510.518 259.87 510.718 260.07C510.918 260.27 511.198 260.37 511.558 260.37C511.918 260.37 512.198 260.27 512.398 260.07C512.598 259.87 512.742 259.627 512.828 259.34C512.922 259.047 512.975 258.737 512.988 258.41C513.008 258.077 513.018 257.777 513.018 257.51C513.018 257.337 513.015 257.147 513.008 256.94C513.008 256.727 512.992 256.517 512.958 256.31C512.932 256.097 512.888 255.89 512.828 255.69C512.775 255.49 512.692 255.317 512.578 255.17C512.472 255.017 512.335 254.893 512.168 254.8C512.002 254.707 511.798 254.66 511.558 254.66C511.318 254.66 511.115 254.707 510.948 254.8C510.782 254.893 510.642 255.017 510.528 255.17C510.422 255.317 510.338 255.49 510.278 255.69C510.225 255.89 510.182 256.097 510.148 256.31C510.122 256.517 510.105 256.727 510.098 256.94C510.098 257.147 510.098 257.337 510.098 257.51ZM509.198 257.52C509.198 257.26 509.205 256.99 509.218 256.71C509.232 256.43 509.265 256.157 509.318 255.89C509.372 255.623 509.448 255.37 509.548 255.13C509.648 254.89 509.785 254.68 509.958 254.5C510.132 254.32 510.348 254.177 510.608 254.07C510.875 253.963 511.192 253.91 511.558 253.91C511.925 253.91 512.238 253.963 512.498 254.07C512.765 254.177 512.985 254.32 513.158 254.5C513.332 254.68 513.468 254.89 513.568 255.13C513.668 255.37 513.745 255.623 513.798 255.89C513.852 256.157 513.885 256.43 513.898 256.71C513.912 256.99 513.918 257.26 513.918 257.52C513.918 257.78 513.912 258.05 513.898 258.33C513.885 258.61 513.852 258.883 513.798 259.15C513.745 259.417 513.668 259.67 513.568 259.91C513.468 260.143 513.332 260.35 513.158 260.53C512.985 260.71 512.768 260.853 512.508 260.96C512.248 261.06 511.932 261.11 511.558 261.11C511.192 261.11 510.875 261.06 510.608 260.96C510.348 260.853 510.132 260.71 509.958 260.53C509.785 260.35 509.648 260.143 509.548 259.91C509.448 259.67 509.372 259.417 509.318 259.15C509.265 258.883 509.232 258.61 509.218 258.33C509.205 258.05 509.198 257.78 509.198 257.52Z" fill="#757575"/>
<path d="M498.105 204.42C498.085 204.06 498.122 203.727 498.215 203.42C498.308 203.113 498.452 202.85 498.645 202.63C498.845 202.403 499.092 202.227 499.385 202.1C499.678 201.973 500.012 201.91 500.385 201.91C500.692 201.91 500.978 201.957 501.245 202.05C501.518 202.137 501.755 202.267 501.955 202.44C502.155 202.607 502.312 202.817 502.425 203.07C502.545 203.323 502.605 203.617 502.605 203.95C502.605 204.263 502.555 204.54 502.455 204.78C502.362 205.02 502.235 205.237 502.075 205.43C501.915 205.617 501.732 205.787 501.525 205.94C501.318 206.093 501.105 206.24 500.885 206.38C500.665 206.513 500.445 206.647 500.225 206.78C500.005 206.907 499.802 207.043 499.615 207.19C499.435 207.337 499.278 207.497 499.145 207.67C499.018 207.837 498.935 208.03 498.895 208.25H502.535V209H497.905C497.938 208.58 498.012 208.223 498.125 207.93C498.245 207.63 498.395 207.37 498.575 207.15C498.755 206.93 498.958 206.737 499.185 206.57C499.412 206.403 499.648 206.247 499.895 206.1C500.195 205.913 500.458 205.743 500.685 205.59C500.912 205.43 501.098 205.27 501.245 205.11C501.398 204.95 501.512 204.777 501.585 204.59C501.665 204.403 501.705 204.187 501.705 203.94C501.705 203.747 501.668 203.573 501.595 203.42C501.522 203.26 501.422 203.123 501.295 203.01C501.175 202.897 501.032 202.81 500.865 202.75C500.698 202.69 500.522 202.66 500.335 202.66C500.088 202.66 499.875 202.713 499.695 202.82C499.522 202.92 499.378 203.053 499.265 203.22C499.152 203.387 499.068 203.577 499.015 203.79C498.968 203.997 498.948 204.207 498.955 204.42H498.105ZM507.922 202.78H505.062L504.682 204.82L504.702 204.84C504.855 204.667 505.052 204.54 505.292 204.46C505.538 204.373 505.782 204.33 506.022 204.33C506.335 204.33 506.632 204.38 506.912 204.48C507.192 204.58 507.435 204.733 507.642 204.94C507.848 205.14 508.012 205.393 508.132 205.7C508.252 206 508.312 206.353 508.312 206.76C508.312 207.06 508.258 207.353 508.152 207.64C508.052 207.92 507.898 208.17 507.692 208.39C507.485 208.61 507.225 208.787 506.912 208.92C506.605 209.047 506.245 209.11 505.832 209.11C505.525 209.11 505.235 209.067 504.962 208.98C504.695 208.887 504.458 208.757 504.252 208.59C504.045 208.417 503.882 208.203 503.762 207.95C503.642 207.697 503.578 207.41 503.572 207.09H504.422C504.435 207.27 504.478 207.44 504.552 207.6C504.632 207.753 504.735 207.89 504.862 208.01C504.995 208.123 505.148 208.213 505.322 208.28C505.502 208.34 505.698 208.37 505.912 208.37C506.112 208.37 506.302 208.337 506.482 208.27C506.668 208.197 506.828 208.09 506.962 207.95C507.102 207.81 507.212 207.637 507.292 207.43C507.372 207.217 507.412 206.97 507.412 206.69C507.412 206.457 507.372 206.243 507.292 206.05C507.218 205.85 507.112 205.68 506.972 205.54C506.832 205.393 506.662 205.28 506.462 205.2C506.268 205.12 506.052 205.08 505.812 205.08C505.532 205.08 505.282 205.143 505.062 205.27C504.848 205.39 504.658 205.55 504.492 205.75L503.762 205.71L504.422 202.03H507.922V202.78ZM510.098 205.51C510.098 205.777 510.105 206.077 510.118 206.41C510.138 206.737 510.192 207.047 510.278 207.34C510.372 207.627 510.518 207.87 510.718 208.07C510.918 208.27 511.198 208.37 511.558 208.37C511.918 208.37 512.198 208.27 512.398 208.07C512.598 207.87 512.742 207.627 512.828 207.34C512.922 207.047 512.975 206.737 512.988 206.41C513.008 206.077 513.018 205.777 513.018 205.51C513.018 205.337 513.015 205.147 513.008 204.94C513.008 204.727 512.992 204.517 512.958 204.31C512.932 204.097 512.888 203.89 512.828 203.69C512.775 203.49 512.692 203.317 512.578 203.17C512.472 203.017 512.335 202.893 512.168 202.8C512.002 202.707 511.798 202.66 511.558 202.66C511.318 202.66 511.115 202.707 510.948 202.8C510.782 202.893 510.642 203.017 510.528 203.17C510.422 203.317 510.338 203.49 510.278 203.69C510.225 203.89 510.182 204.097 510.148 204.31C510.122 204.517 510.105 204.727 510.098 204.94C510.098 205.147 510.098 205.337 510.098 205.51ZM509.198 205.52C509.198 205.26 509.205 204.99 509.218 204.71C509.232 204.43 509.265 204.157 509.318 203.89C509.372 203.623 509.448 203.37 509.548 203.13C509.648 202.89 509.785 202.68 509.958 202.5C510.132 202.32 510.348 202.177 510.608 202.07C510.875 201.963 511.192 201.91 511.558 201.91C511.925 201.91 512.238 201.963 512.498 202.07C512.765 202.177 512.985 202.32 513.158 202.5C513.332 202.68 513.468 202.89 513.568 203.13C513.668 203.37 513.745 203.623 513.798 203.89C513.852 204.157 513.885 204.43 513.898 204.71C513.912 204.99 513.918 205.26 513.918 205.52C513.918 205.78 513.912 206.05 513.898 206.33C513.885 206.61 513.852 206.883 513.798 207.15C513.745 207.417 513.668 207.67 513.568 207.91C513.468 208.143 513.332 208.35 513.158 208.53C512.985 208.71 512.768 208.853 512.508 208.96C512.248 209.06 511.932 209.11 511.558 209.11C511.192 209.11 510.875 209.06 510.608 208.96C510.348 208.853 510.132 208.71 509.958 208.53C509.785 208.35 509.648 208.143 509.548 207.91C509.448 207.67 509.372 207.417 509.318 207.15C509.265 206.883 509.232 206.61 509.218 206.33C509.205 206.05 509.198 205.78 509.198 205.52Z" fill="#757575"/>
</g>
<defs>
<filter id="filter0_d_2071_10434" x="-4" y="0" width="530" height="324" filterUnits="userSpaceOnUse" color-interpolation-filters="sRGB">
<feFlood flood-opacity="0" result="BackgroundImageFix"/>
<feColorMatrix in="SourceAlpha" type="matrix" values="0 0 0 0 0 0 0 0 0 0 0 0 0 0 0 0 0 0 127 0" result="hardAlpha"/>
<feOffset dy="4"/>
<feGaussianBlur stdDeviation="2"/>
<feComposite in2="hardAlpha" operator="out"/>
<feColorMatrix type="matrix" values="0 0 0 0 0 0 0 0 0 0 0 0 0 0 0 0 0 0 0.25 0"/>
<feBlend mode="normal" in2="BackgroundImageFix" result="effect1_dropShadow_2071_10434"/>
<feBlend mode="normal" in="SourceGraphic" in2="effect1_dropShadow_2071_10434" result="shape"/>
</filter>
<clipPath id="clip0_2071_10434">
<rect width="522" height="316" fill="white"/>
</clipPath>
</defs>
</svg>
